<?xml version="1.0" encoding="UTF-8" standalone="no"?>
<svg
   xmlns:dc="http://purl.org/dc/elements/1.1/"
   xmlns:cc="http://creativecommons.org/ns#"
   xmlns:rdf="http://www.w3.org/1999/02/22-rdf-syntax-ns#"
   xmlns:svg="http://www.w3.org/2000/svg"
   xmlns="http://www.w3.org/2000/svg"
   viewBox="0 0 939.69336 606.84003"
   height="606.84003"
   width="939.69336"
   xml:space="preserve"
   id="svg2"
   version="1.1"><metadata
     id="metadata8"><rdf:RDF><cc:Work
         rdf:about=""><dc:format>image/svg+xml</dc:format><dc:type
           rdf:resource="http://purl.org/dc/dcmitype/StillImage" /></cc:Work></rdf:RDF></metadata><defs
     id="defs6" /><g
     transform="matrix(1.3333333,0,0,-1.3333333,0,606.84)"
     id="g10"><g
       transform="scale(0.1)"
       id="g12"><path
         id="path14"
         style="fill:#6ccb94;fill-opacity:1;fill-rule:nonzero;stroke:none"
         d="m 6761.05,2033.91 c 0,0 100,1780 -1410,2270 -1510,490 -2270,130 -2750,-330 -480,-460 -640,-760 -1190,-820 -549.995,-60 -1059.995,-160 -1319.9953,-830 -259.9997,-670 70.0003,-1200 570.0003,-1530 C 935.246,612.941 1233.5,636.469 1522.82,660 c 238.27,19.371 470.49,38.75 678.23,-56.09 460,-210 750,-559.9998 1690,-599.99984 940,-39.99996 970,229.99984 1450,649.99984 480,420 1330,-20 1420,1380" /><path
         id="path16"
         style="fill:#ccedd5;fill-opacity:1;fill-rule:nonzero;stroke:none"
         d="M 4064.75,-0.0117188 C 4010.52,0 3952.73,1.28906 3891.05,3.91016 c -940,40.00004 -1230,389.99984 -1690,599.99984 -122.18,55.781 -252.82,72.051 -388.18,72.051 -94.8,0 -191.91,-7.981 -290.05,-15.961 -98.14,-7.98 -197.29,-15.961 -296.2,-15.961 -192.67,0 -384.39,30.289 -565.565,149.871 C 281.66,1044.31 0.144531,1409.86 -0.00390625,1864.35 -0.046875,2008.83 28.3398,2162.3 91.0547,2323.91 c 260.0003,670 770.0003,770 1319.9953,830 550,60 710,360 1190,820 317.35,304.12 756.95,564.5 1454.89,564.5 357.73,0 783.42,-68.46 1295.11,-234.5 1333.42,-432.7 1411.37,-1871.32 1411.37,-2201.88 0,-43.78 -1.37,-68.12 -1.37,-68.12 -90,-1400 -940,-960 -1420,-1380 C 4892.55,261.469 4836.96,-0.0117188 4064.75,-0.0117188" /><path
         id="path18"
         style="fill:#17282f;fill-opacity:1;fill-rule:nonzero;stroke:none"
         d="m 5802.13,1884.19 c 37.22,-16.26 128.28,-14.21 128.35,-14.21 0.94,0.03 -19.57,59.61 -21.3,63.23 -19.97,41.78 -83.16,110.8 -134.56,103.84 -37.03,-5 -57.63,-42.07 -49.27,-76.93 8.53,-35.61 45.07,-62.07 76.78,-75.93" /><path
         id="path20"
         style="fill:#17282f;fill-opacity:1;fill-rule:nonzero;stroke:none"
         d="m 5833.55,1620.45 c 38.62,-5.63 119.88,17.93 126.34,19.84 12.83,-45.49 29.68,-91.13 49.29,-136.37 11.17,-25.88 23.24,-51.6 35.65,-77.24 -7.41,10.86 -14.12,20.52 -15.19,21.77 -30.33,35.04 -109.48,84.9 -157.22,64.62 -34.4,-14.6 -44.47,-55.78 -27.2,-87.21 17.63,-32.09 59.87,-47.97 94.09,-52.95 34.75,-5.06 104.43,13.64 122.82,18.83 4.86,-9.78 9.61,-19.61 14.52,-29.36 23.52,-46.87 47.22,-93.52 69.04,-139.99 7.7,-16.37 14.68,-32.78 21.73,-49.17 -6.59,9.64 -12.23,17.69 -13.21,18.84 -30.31,35.02 -109.47,84.91 -157.22,64.62 -34.39,-14.6 -44.47,-55.79 -27.21,-87.2 17.66,-32.1 59.88,-47.97 94.12,-52.95 33.15,-4.84 97.62,11.84 119.49,17.91 6.71,-17 13.45,-34.03 19.19,-50.8 3.66,-11.55 7.99,-22.41 10.99,-34.2 3.25,-11.62 6.46,-23.14 9.64,-34.52 5.32,-22.158 10.94,-45.002 15.59,-66.748 3.34,-15.113 6.25,-29.563 9.22,-44.121 -7.47,16.379 -22.79,48.16 -24.37,50.668 -24.64,39.222 -95.33,100.501 -145.6,87.701 -36.22,-9.23 -52.42,-48.408 -40.09,-82.092 12.57,-34.387 51.89,-56.476 84.98,-66.598 36.43,-11.128 117.08,-0.949 127.16,0.391 4.83,-24.109 9.3,-47.59 13.16,-69.82 8.65,-49.051 15.18,-93.031 20.14,-130.242 h 34 c -5.93,38.5 -13.67,84.371 -23.92,135.89 -4.81,24.492 -10.44,50.563 -16.47,77.281 6.06,2.411 40.46,16.321 70.94,33.36 26.55,-28.762 94.58,-62.399 103.39,-66.692 -9.26,-22.757 -18.49,-44.82 -27.53,-65.488 -18.81,-43.301 -36.68,-81.691 -52.45,-114.351 h 36.76 c 13.57,30.101 28.47,64.39 44.01,102.39 9.5,23.082 19.2,47.942 28.9,73.539 9.76,-2.039 89.59,-18.25 126.81,-9.847 33.74,7.629 74.62,26.718 89.73,60.078 14.79,32.652 1.55,72.941 -33.89,84.841 -49.16,16.53 -124.23,-39.322 -151.73,-76.599 -1.63,-2.199 -16.56,-28.031 -25.71,-44.473 3.91,10.492 7.82,20.621 11.72,31.473 7.85,21.391 15.05,42.957 22.88,66.16 3.39,11.32 6.81,22.769 10.27,34.329 3.67,11.39 6.11,23.89 9.24,35.93 6.69,28.08 12.1,56.85 16.9,85.97 18.75,-6.82 85.68,-30.11 120.35,-27.67 34.52,2.43 77.8,15.11 97.79,45.8 19.57,30.04 12.58,71.87 -20.63,89 -46.11,23.77 -128.77,-20.06 -161.6,-52.74 -2.05,-2.03 -22.97,-28.12 -34.18,-42.69 2.76,17.52 5.59,35 7.79,52.83 6.39,51.42 11.25,103.69 16.33,155.8 1.55,15.96 3.29,31.85 4.96,47.76 6.65,-2.5 85.59,-31.89 124.43,-29.16 34.51,2.41 77.8,15.1 97.79,45.79 19.56,30.04 12.58,71.87 -20.63,89 -46.11,23.78 -128.76,-20.05 -161.58,-52.74 -2.48,-2.45 -32.53,-40.05 -39.71,-49.99 3.7,35.05 7.71,69.93 13.07,104.17 7.32,47.24 17.12,93.18 29.91,136.99 3.08,-1.17 85.35,-32.21 125.11,-29.43 34.53,2.43 77.83,15.11 97.8,45.8 19.57,30.04 12.59,71.87 -20.63,89 -46.11,23.77 -128.75,-20.06 -161.59,-52.74 -2.57,-2.56 -34.89,-43.03 -40.22,-50.78 0.77,2.61 1.27,5.39 2.07,7.98 14.24,46.59 33.88,89.95 54.27,129.63 11.8,23.09 24.37,44.49 37.06,65.05 14.73,-7.37 82.42,-40.23 118.48,-41.67 34.57,-1.38 79,6.47 102.23,34.77 22.75,27.72 20.41,70.06 -10.73,90.73 -43.22,28.7 -130.17,-5.8 -166.4,-34.66 -1.97,-1.58 -20.22,-19.76 -33.33,-33.18 5.87,9.19 11.76,18.78 17.56,27.46 21.7,32.69 43.58,61.27 63.17,86.44 11.25,14.21 21.7,26.84 31.62,38.57 18.21,0.32 91.61,2.55 123.7,17.61 31.31,14.71 67.13,42.14 74.71,77.97 7.41,35.09 -14.18,71.58 -51.33,75.57 -51.58,5.57 -112.87,-65.12 -131.72,-107.44 -1.62,-3.66 -20.51,-63.78 -19.57,-63.77 l 1.11,0.01 c -9.77,-11.08 -20.1,-23.07 -31.14,-36.41 -20.18,-24.79 -42.74,-52.97 -65.23,-85.31 -22.57,-32.25 -46.17,-67.93 -67.65,-107.76 -21.58,-39.89 -42.23,-82.96 -57.78,-130.08 l -0.47,-1.64 c 0.27,15.2 -0.4,57.71 -0.83,60.96 -5.96,45.94 -44.44,131.21 -95.47,140.64 -36.75,6.79 -67.87,-22 -70.8,-57.74 -2.99,-36.49 23.47,-73.03 49.28,-96.08 29.1,-25.99 109.88,-51.17 116.31,-53.15 -14.4,-45.01 -25.51,-92.37 -34.12,-140.92 -4.96,-27.76 -9.09,-55.86 -12.87,-84.1 -0.18,13.16 -0.45,24.9 -0.67,26.54 -5.96,45.95 -44.46,131.21 -95.48,140.64 -36.75,6.8 -67.87,-22 -70.79,-57.74 -3,-36.5 23.47,-73.02 49.27,-96.07 26.19,-23.39 94.62,-46.24 112.81,-52.04 -1.34,-10.85 -2.79,-21.67 -4.08,-32.52 -6.23,-52.06 -12.21,-104.03 -19.64,-154.83 -2.61,-17.91 -5.83,-35.44 -9,-53 -0.19,11.67 -0.44,21.5 -0.63,23 -5.96,45.93 -44.45,131.2 -95.46,140.63 -36.77,6.79 -67.89,-22 -70.82,-57.74 -2.99,-36.49 23.48,-73.03 49.29,-96.08 24.98,-22.31 87.96,-43.97 109.54,-50.96 -3.78,-17.89 -7.54,-35.8 -12.01,-52.97 -3.33,-11.64 -5.71,-23.09 -9.7,-34.6 -3.7,-11.48 -7.37,-22.85 -11,-34.102 -7.8,-21.418 -15.71,-43.57 -23.83,-64.277 -5.54,-14.43 -11.1,-28.102 -16.64,-41.883 2.8,17.801 7.56,52.754 7.63,55.711 0.71,30.762 -10.21,80.791 -31.97,115.951 0.14,4.55 -0.13,9.08 -0.84,13.58 -5.69,35.4 -38.95,61.7 -75.08,52.08 -50.12,-13.34 -81.91,-101.34 -84.28,-147.591 -0.15,-2.731 1.65,-32.508 3.08,-51.278 -2.53,10.899 -4.85,21.508 -7.59,32.707 -5.26,22.172 -11.16,44.141 -17.41,67.812 -3.42,11.32 -6.88,22.74 -10.38,34.31 -3.21,11.51 -8.09,23.27 -12.11,35.05 -9.91,27.1 -21.28,54.11 -33.33,81.03 19.41,4.65 88.07,22.16 115.64,43.32 27.45,21.05 56.56,55.52 56.3,92.13 -0.26,35.86 -29.14,66.89 -66.3,62.86 -51.58,-5.61 -96.33,-87.76 -105.7,-133.13 -0.57,-2.83 -3.63,-36.14 -4.96,-54.47 -7.36,16.14 -14.65,32.28 -22.64,48.36 -23.04,46.43 -47.81,92.7 -72.33,138.96 -7.52,14.17 -14.83,28.38 -22.22,42.57 6.93,1.59 89,20.63 119.89,44.32 27.44,21.06 56.55,55.52 56.3,92.14 -0.27,35.85 -29.15,66.89 -66.31,62.85 -51.58,-5.6 -96.33,-87.75 -105.69,-133.12 -0.7,-3.42 -5.04,-51.35 -5.53,-63.59 -16.24,31.26 -32.14,62.57 -46.57,94.08 -19.95,43.44 -37.13,87.16 -50.63,130.76 3.23,0.73 88.96,20.22 120.6,44.48 27.46,21.06 56.57,55.53 56.3,92.14 -0.25,35.86 -29.14,66.88 -66.31,62.85 -51.57,-5.6 -96.32,-87.75 -105.68,-133.13 -0.73,-3.56 -5.36,-55.13 -5.53,-64.53 -0.8,2.59 -1.91,5.19 -2.68,7.78 -13.82,46.73 -21.35,93.73 -26.24,138.07 -2.9,25.76 -4.22,50.55 -4.96,74.69 16.33,1.99 90.91,11.92 121.79,30.62 29.6,17.92 62.33,48.97 66.09,85.4 3.68,35.66 -21.63,69.68 -59,69.75 -51.87,0.1 -105.39,-76.65 -119.67,-120.71 -0.78,-2.4 -5.98,-27.63 -9.51,-46.07 -0.16,10.9 -0.55,22.16 -0.5,32.6 0.07,39.23 2.54,75.15 5.01,106.95 1.54,18.06 3.3,34.37 5.09,49.6 15.02,10.33 75.01,52.68 93.47,82.94 18.01,29.55 32.73,72.18 19.29,106.24 -13.17,33.35 -51.31,51.88 -84.5,34.73 -46.09,-23.83 -58.21,-116.59 -50.59,-162.28 0.66,-3.94 18.07,-64.52 18.86,-63.99 l 0.9,0.63 c -2.03,-14.63 -4.03,-30.35 -5.86,-47.55 -3.17,-31.81 -6.44,-67.77 -7.36,-107.15 -1.02,-39.35 -1.03,-82.14 3.03,-127.2 4.01,-45.16 10.54,-92.49 23.56,-140.37 l 0.53,-1.62 c -8.16,12.82 -32.19,47.9 -34.33,50.39 -30.32,35.03 -109.47,84.9 -157.21,64.63 -34.4,-14.61 -44.48,-55.8 -27.21,-87.22 17.66,-32.1 59.87,-47.96 94.1,-52.95" /><path
         id="path22"
         style="fill:#17282f;fill-opacity:1;fill-rule:nonzero;stroke:none"
         d="m 6723.11,1864.16 c 0.8,-0.49 16.57,60.52 17.12,64.49 6.38,45.88 -8.24,138.28 -54.96,160.85 -33.64,16.26 -71.26,-3.3 -83.51,-37.01 -12.53,-34.4 3.35,-76.62 22.15,-105.66 22.07,-34.11 99.15,-82.63 99.2,-82.67" /><path
         id="path24"
         style="fill:#ffffff;fill-opacity:1;fill-rule:nonzero;stroke:none"
         d="m 6605.18,201.801 h -497.69 l -62.21,552.738 h 622.12 l -62.22,-552.738" /><path
         id="path26"
         style="fill:#17282f;fill-opacity:1;fill-rule:nonzero;stroke:none"
         d="m 6605.18,201.801 v 5 h -493.22 l -61.08,542.738 h 610.93 l -61.59,-547.18 4.96,-0.558 v 5 -5 l 4.97,-0.563 62.22,552.742 c 0.16,1.418 -0.29,2.821 -1.24,3.891 -0.95,1.059 -2.3,1.668 -3.73,1.668 h -622.12 c -1.43,0 -2.77,-0.609 -3.73,-1.668 -0.95,-1.07 -1.4,-2.473 -1.24,-3.891 l 62.21,-552.742 c 0.29,-2.527 2.42,-4.437 4.97,-4.437 h 497.69 c 2.55,0 4.69,1.91 4.97,4.437 l -4.97,0.563" /><path
         id="path28"
         style="fill:#17282f;fill-opacity:1;fill-rule:nonzero;stroke:none"
         d="m 6056.68,653.281 6.02,-53.562 h 587.28 l 6.02,53.562 h -599.32" /><path
         id="path30"
         style="fill:#17282f;fill-opacity:1;fill-rule:nonzero;stroke:none"
         d="m 6636.72,481.91 6.02,53.551 h -572.8 l 6.03,-53.551 h 560.75" /><path
         id="path32"
         style="fill:#17282f;fill-opacity:1;fill-rule:nonzero;stroke:none"
         d="M 4013.8,208.988 H 3711.58 V 1428.29 H 4013.8 V 208.988" /><path
         id="path34"
         style="fill:#17282f;fill-opacity:1;fill-rule:nonzero;stroke:none"
         d="m 4013.8,208.988 v 5 H 3716.58 V 1423.29 H 4008.8 V 208.988 h 5 v 5 -5 h 5 V 1428.29 c 0,1.31 -0.54,2.6 -1.47,3.53 -0.93,0.93 -2.22,1.47 -3.53,1.47 h -302.22 c -1.32,0 -2.6,-0.54 -3.53,-1.47 -0.94,-0.93 -1.47,-2.22 -1.47,-3.53 V 208.988 c 0,-1.316 0.53,-2.609 1.47,-3.539 0.93,-0.929 2.21,-1.461 3.53,-1.461 h 302.22 c 1.31,0 2.6,0.532 3.53,1.461 0.93,0.93 1.47,2.223 1.47,3.539 h -5" /><path
         id="path36"
         style="fill:#17282f;fill-opacity:1;fill-rule:nonzero;stroke:none"
         d="M 5846.65,1126.07 H 2032.43 V 3439.61 H 5846.65 V 1126.07" /><path
         id="path38"
         style="fill:#17282f;fill-opacity:1;fill-rule:nonzero;stroke:none"
         d="m 5846.65,1126.07 v 5 H 2037.43 V 3434.61 H 5841.65 V 1126.07 h 5 v 5 -5 h 5 v 2313.54 c 0,1.31 -0.53,2.6 -1.47,3.53 -0.93,0.93 -2.21,1.47 -3.53,1.47 H 2032.43 c -1.32,0 -2.6,-0.54 -3.54,-1.47 -0.93,-0.93 -1.46,-2.22 -1.46,-3.53 V 1126.07 c 0,-1.32 0.53,-2.61 1.46,-3.54 0.94,-0.93 2.22,-1.46 3.54,-1.46 h 3814.22 c 1.32,0 2.6,0.53 3.53,1.46 0.94,0.93 1.47,2.22 1.47,3.54 h -5" /><path
         id="path40"
         style="fill:#6ccb94;fill-opacity:1;fill-rule:nonzero;stroke:none"
         d="M 5769.79,1126.07 H 1955.58 V 3439.61 H 5769.79 V 1126.07" /><path
         id="path42"
         style="fill:#17282f;fill-opacity:1;fill-rule:nonzero;stroke:none"
         d="m 5769.79,1126.07 v 5 H 1960.58 V 3434.61 H 5764.79 V 1126.07 h 5 v 5 -5 h 5 v 2313.54 c 0,1.31 -0.53,2.6 -1.46,3.53 -0.93,0.93 -2.22,1.47 -3.54,1.47 H 1955.58 c -1.32,0 -2.6,-0.54 -3.54,-1.47 -0.93,-0.93 -1.46,-2.22 -1.46,-3.53 V 1126.07 c 0,-1.32 0.53,-2.61 1.46,-3.54 0.94,-0.93 2.22,-1.46 3.54,-1.46 h 3814.21 c 1.32,0 2.61,0.53 3.54,1.46 0.93,0.93 1.46,2.22 1.46,3.54 h -5" /><path
         id="path44"
         style="fill:#ffffff;fill-opacity:1;fill-rule:nonzero;stroke:none"
         d="M 5632.35,1209.44 H 2093.03 V 3356.23 H 5632.35 V 1209.44" /><path
         id="path46"
         style="fill:#17282f;fill-opacity:1;fill-rule:nonzero;stroke:none"
         d="m 5632.35,1209.44 v 5 H 2098.03 V 3351.23 H 5627.35 V 1209.44 h 5 v 5 -5 h 5 v 2146.79 c 0,1.32 -0.53,2.61 -1.46,3.54 -0.93,0.93 -2.22,1.46 -3.54,1.46 H 2093.03 c -1.32,0 -2.6,-0.53 -3.53,-1.46 -0.94,-0.93 -1.47,-2.22 -1.47,-3.54 V 1209.44 c 0,-1.32 0.53,-2.61 1.47,-3.54 0.93,-0.93 2.21,-1.46 3.53,-1.46 h 3539.32 c 1.32,0 2.61,0.53 3.54,1.46 0.93,0.93 1.46,2.22 1.46,3.54 h -5" /><path
         id="path48"
         style="fill:#ffffff;fill-opacity:1;fill-rule:nonzero;stroke:none"
         d="M 5632.35,1209.44 H 2093.03 v 129.28 h 3539.32 v -129.28" /><path
         id="path50"
         style="fill:#17282f;fill-opacity:1;fill-rule:nonzero;stroke:none"
         d="m 5632.35,1209.44 v 5 H 2098.03 v 119.28 h 3529.32 v -124.28 h 5 v 5 -5 h 5 v 129.28 c 0,1.32 -0.53,2.61 -1.46,3.54 -0.93,0.93 -2.22,1.46 -3.54,1.46 H 2093.03 c -1.32,0 -2.6,-0.53 -3.53,-1.46 -0.94,-0.93 -1.47,-2.22 -1.47,-3.54 v -129.28 c 0,-1.32 0.53,-2.61 1.47,-3.54 0.93,-0.93 2.21,-1.46 3.53,-1.46 h 3539.32 c 1.32,0 2.61,0.53 3.54,1.46 0.93,0.93 1.46,2.22 1.46,3.54 h -5" /><path
         id="path52"
         style="fill:#17282f;fill-opacity:1;fill-rule:nonzero;stroke:none"
         d="M 3879.19,345.77 2758.67,273.359 v -72.961 h 2208.04 v 72.961 L 3879.19,345.77" /><path
         id="path54"
         style="fill:#17282f;fill-opacity:1;fill-rule:nonzero;stroke:none"
         d="m 3879.19,345.77 -0.32,4.992 -1120.52,-72.41 c -2.64,-0.172 -4.68,-2.352 -4.68,-4.993 v -72.961 c 0,-1.308 0.53,-2.597 1.47,-3.527 0.93,-0.93 2.21,-1.473 3.53,-1.473 h 2208.04 c 1.31,0 2.6,0.543 3.53,1.473 0.93,0.93 1.47,2.219 1.47,3.527 v 72.961 c 0,2.641 -2.04,4.821 -4.67,4.993 l -1087.52,72.398 -0.65,0.012 0.32,-4.992 -0.33,-4.989 1082.85,-72.09 V 205.398 H 2763.67 v 63.282 l 1115.84,72.101 -0.32,4.989 -0.33,-4.989 0.33,4.989" /><path
         id="path56"
         style="fill:#ffffff;fill-opacity:1;fill-rule:nonzero;stroke:none"
         d="M 5632.35,1209.44 H 2093.03 V 3356.23 H 5632.35 V 1209.44" /><path
         id="path58"
         style="fill:#17282f;fill-opacity:1;fill-rule:nonzero;stroke:none"
         d="m 5632.35,1209.44 v 5 H 2098.03 V 3351.23 H 5627.35 V 1209.44 h 5 v 5 -5 h 5 v 2146.79 c 0,1.32 -0.53,2.61 -1.46,3.54 -0.93,0.93 -2.22,1.46 -3.54,1.46 H 2093.03 c -1.32,0 -2.6,-0.53 -3.53,-1.46 -0.94,-0.93 -1.47,-2.22 -1.47,-3.54 V 1209.44 c 0,-1.32 0.53,-2.61 1.47,-3.54 0.93,-0.93 2.21,-1.46 3.53,-1.46 h 3539.32 c 1.32,0 2.61,0.53 3.54,1.46 0.93,0.93 1.46,2.22 1.46,3.54 h -5" /><path
         id="path60"
         style="fill:#17282f;fill-opacity:1;fill-rule:nonzero;stroke:none"
         d="m 3324.21,3851.41 -27.53,-41.73 8.35,-5.51 27.53,41.74 z m -55.06,-83.47 -27.53,-41.74 8.35,-5.51 27.53,41.74 z m -55.06,-83.48 -27.53,-41.74 8.35,-5.51 27.53,41.74 z m -55.06,-83.48 -27.52,-41.74 8.34,-5.51 27.53,41.74 z m -55.05,-83.48 -27.53,-41.74 8.35,-5.5 27.52,41.74 z m -55.06,-83.48 -27.53,-41.74 8.35,-5.5 27.53,41.74" /><path
         id="path62"
         style="fill:#6ccb94;fill-opacity:1;fill-rule:nonzero;stroke:none"
         d="m 3464.74,4022.41 c -68.89,0 -124.73,55.85 -124.73,124.74 0,68.89 55.84,124.74 124.73,124.74 68.9,0 124.74,-55.85 124.74,-124.74 0,-68.89 -55.84,-124.74 -124.74,-124.74 z m 346.8,71.65 v 104.53 l -104.37,11.61 c -5.74,22.07 -14.45,42.93 -25.6,62.2 l 65.93,82.43 -73.91,73.91 -82.07,-65.65 c -19.19,11.3 -40,20.11 -62.03,25.99 l -11.66,104.86 h -104.52 l -11.61,-104.38 c -22.08,-5.72 -42.94,-14.43 -62.2,-25.59 l -82.44,65.93 -73.91,-73.9 65.65,-82.08 c -11.3,-19.19 -20.11,-40.01 -25.99,-62.03 l -104.86,-11.66 v -104.52 l 104.38,-11.61 c 5.73,-22.08 14.44,-42.94 25.59,-62.21 l -65.93,-82.43 73.91,-73.91 82.07,65.65 c 19.19,-11.29 40.01,-20.11 62.03,-25.99 l 11.66,-104.85 h 104.53 l 11.61,104.37 c 22.07,5.72 42.93,14.44 62.2,25.59 l 82.43,-65.93 73.91,73.91 -65.65,82.07 c 11.3,19.19 20.11,40.01 25.99,62.03 l 104.86,11.66" /><path
         id="path64"
         style="fill:#17282f;fill-opacity:1;fill-rule:nonzero;stroke:none"
         d="m 3464.74,4022.41 v 5 c -33.08,0 -62.98,13.39 -84.66,35.07 -21.68,21.68 -35.07,51.59 -35.07,84.67 0,33.08 13.39,62.98 35.07,84.67 21.68,21.67 51.58,35.07 84.66,35.07 33.09,0 62.99,-13.4 84.67,-35.07 21.68,-21.69 35.07,-51.59 35.07,-84.67 0,-33.08 -13.39,-62.99 -35.07,-84.67 -21.68,-21.68 -51.58,-35.07 -84.67,-35.07 v -5 -5 c 71.66,0 129.74,58.08 129.74,129.74 0,71.65 -58.08,129.74 -129.74,129.74 -71.65,0 -129.73,-58.09 -129.73,-129.74 0,-71.66 58.08,-129.74 129.73,-129.74 z m 346.8,71.65 h 5 v 104.53 c 0,2.55 -1.91,4.68 -4.45,4.97 l -104.37,11.6 -0.55,-4.96 4.84,1.25 c -5.85,22.53 -14.74,43.81 -26.11,63.46 l -4.33,-2.51 3.91,-3.12 65.92,82.43 c 1.6,1.99 1.44,4.86 -0.37,6.66 l -73.9,73.9 c -1.8,1.81 -4.67,1.96 -6.66,0.37 l -82.07,-65.64 3.12,-3.91 2.54,4.31 c -19.57,11.52 -40.81,20.51 -63.28,26.51 l -1.29,-4.83 4.97,0.55 -11.66,104.86 c -0.28,2.54 -2.42,4.45 -4.97,4.45 h -104.52 c -2.55,0 -4.69,-1.91 -4.97,-4.45 l -11.61,-104.37 4.97,-0.56 -1.26,4.84 c -22.52,-5.84 -43.8,-14.73 -63.45,-26.1 l 2.51,-4.33 3.12,3.91 -82.43,65.92 c -1.99,1.6 -4.86,1.44 -6.66,-0.36 l -73.91,-73.91 c -1.81,-1.8 -1.96,-4.67 -0.37,-6.66 l 65.64,-82.07 3.91,3.12 -4.31,2.54 c -11.52,-19.58 -20.51,-40.81 -26.51,-63.28 l 4.83,-1.29 -0.55,4.97 -104.86,-11.66 c -2.53,-0.28 -4.45,-2.42 -4.45,-4.97 v -104.52 c 0,-2.55 1.92,-4.69 4.45,-4.97 l 104.38,-11.61 0.55,4.97 -4.84,-1.26 c 5.84,-22.53 14.73,-43.81 26.11,-63.45 l 4.32,2.5 -3.9,3.13 -65.93,-82.43 c -1.6,-2 -1.44,-4.86 0.37,-6.66 l 73.91,-73.91 c 1.8,-1.8 4.66,-1.96 6.65,-0.37 l 82.08,65.64 -3.13,3.91 -2.53,-4.31 c 19.57,-11.52 40.8,-20.51 63.27,-26.51 l 1.29,4.83 -4.97,-0.55 11.66,-104.86 c 0.29,-2.53 2.42,-4.44 4.97,-4.44 h 104.53 c 2.55,0 4.68,1.91 4.96,4.44 l 11.62,104.38 -4.97,0.55 1.25,-4.84 c 22.53,5.84 43.81,14.74 63.45,26.1 l -2.5,4.33 -3.12,-3.91 82.43,-65.92 c 1.99,-1.6 4.85,-1.44 6.66,0.37 l 73.9,73.91 c 1.81,1.8 1.96,4.66 0.37,6.65 l -65.64,82.07 -3.91,-3.12 4.31,-2.53 c 11.52,19.57 20.51,40.8 26.51,63.27 l -4.83,1.29 0.55,-4.97 104.86,11.66 c 2.54,0.29 4.45,2.42 4.45,4.97 h -5 l -0.55,4.97 -104.86,-11.66 c -2.06,-0.23 -3.75,-1.68 -4.28,-3.68 -5.76,-21.58 -14.39,-41.97 -25.47,-60.78 -1.05,-1.78 -0.88,-4.05 0.41,-5.66 l 62.85,-78.58 -67.58,-67.58 -78.94,63.14 c -1.61,1.29 -3.84,1.45 -5.63,0.42 -18.89,-10.94 -39.33,-19.47 -60.95,-25.08 -2,-0.52 -3.48,-2.23 -3.71,-4.29 l -11.12,-99.92 h -95.57 l -11.17,100.41 c -0.23,2.05 -1.68,3.74 -3.68,4.28 -21.58,5.75 -41.97,14.39 -60.78,25.45 -1.78,1.05 -4.05,0.89 -5.66,-0.4 l -78.58,-62.85 -67.58,67.58 63.14,78.94 c 1.29,1.62 1.46,3.84 0.42,5.63 -10.94,18.89 -19.47,39.33 -25.08,60.96 -0.52,2 -2.23,3.48 -4.29,3.71 l -99.93,11.11 v 95.57 l 100.41,11.18 c 2.06,0.22 3.75,1.68 4.28,3.68 5.76,21.57 14.4,41.96 25.47,60.77 1.05,1.79 0.88,4.05 -0.41,5.66 l -62.85,78.59 67.59,67.57 78.93,-63.14 c 1.62,-1.29 3.84,-1.45 5.63,-0.42 18.89,10.94 39.33,19.47 60.95,25.09 2.01,0.51 3.49,2.23 3.72,4.28 l 11.11,99.93 h 95.58 l 11.16,-100.41 c 0.23,-2.06 1.68,-3.75 3.68,-4.28 21.58,-5.76 41.98,-14.39 60.79,-25.46 1.78,-1.05 4.04,-0.89 5.66,0.4 l 78.57,62.85 67.58,-67.58 -63.13,-78.94 c -1.3,-1.61 -1.46,-3.83 -0.43,-5.62 10.94,-18.9 19.47,-39.34 25.09,-60.96 0.52,-2 2.23,-3.49 4.28,-3.71 l 99.93,-11.12 v -100.05 h 5 l -0.55,4.97 0.55,-4.97" /><path
         id="path66"
         style="fill:#17282f;fill-opacity:1;fill-rule:nonzero;stroke:none"
         d="m 4000.62,4218 c -45.61,-7.64 -88.78,23.14 -96.4,68.76 -7.64,45.61 23.14,88.77 68.76,96.4 45.6,7.64 88.77,-23.14 96.4,-68.76 7.63,-45.61 -23.15,-88.77 -68.76,-96.4 z m 221.65,85.87 -11.58,69.2 -70.39,-3.89 c -6.24,13.98 -14.31,26.83 -23.84,38.35 l 34.53,61.88 -57.13,40.74 -47.06,-52.55 c -13.96,5.34 -28.72,8.87 -43.95,10.32 l -19.34,68.13 -69.19,-11.58 3.87,-70.38 c -13.97,-6.24 -26.82,-14.32 -38.34,-23.84 l -61.88,34.51 -40.74,-57.12 52.55,-47.06 c -5.35,-13.95 -8.87,-28.71 -10.33,-43.94 l -68.12,-19.35 11.58,-69.2 70.38,3.89 c 6.24,-13.98 14.32,-26.83 23.84,-38.35 l -34.51,-61.88 57.12,-40.74 47.06,52.55 c 13.95,-5.34 28.71,-8.87 43.94,-10.33 l 19.35,-68.12 69.2,11.58 -3.89,70.38 c 13.98,6.24 26.83,14.32 38.35,23.84 l 61.87,-34.52 40.75,57.13 -52.55,47.06 c 5.34,13.96 8.87,28.71 10.32,43.94 l 68.13,19.35" /><path
         id="path68"
         style="fill:#17282f;fill-opacity:1;fill-rule:nonzero;stroke:none"
         d="m 4000.62,4218 -0.82,4.93 c -4.41,-0.74 -8.79,-1.09 -13.11,-1.09 -37.75,0 -71.12,27.26 -77.54,65.74 v 0 c -0.74,4.41 -1.1,8.79 -1.1,13.11 0,37.74 27.26,71.11 65.75,77.54 4.41,0.74 8.78,1.09 13.1,1.09 37.74,0 71.12,-27.25 77.55,-65.74 v 0 c 0.74,-4.4 1.09,-8.78 1.09,-13.09 0,-37.76 -27.26,-71.13 -65.74,-77.56 l 0.82,-4.93 0.83,-4.93 c 43.37,7.27 74.09,44.83 74.09,87.42 0,4.86 -0.4,9.79 -1.22,14.74 h -0.01 c -7.27,43.38 -44.83,74.09 -87.41,74.09 -4.87,0 -9.8,-0.4 -14.75,-1.23 -43.38,-7.27 -74.1,-44.82 -74.1,-87.4 0,-4.87 0.41,-9.8 1.24,-14.76 v 0 c 7.26,-43.37 44.82,-74.09 87.4,-74.09 4.87,0 9.81,0.39 14.76,1.23 z m 221.65,85.87 4.94,0.82 -12.33,73.61 -74.85,-4.12 0.27,-5 4.57,2.04 c -6.43,14.41 -14.75,27.64 -24.55,39.49 l -3.86,-3.18 4.37,-2.44 36.7,65.79 -64.41,45.94 -50.05,-55.89 3.73,-3.33 1.78,4.67 c -14.36,5.5 -29.56,9.14 -45.26,10.63 l -0.47,-4.98 4.81,1.37 -20.56,72.43 -78.02,-13.06 4.12,-74.85 4.99,0.28 -2.04,4.56 c -14.4,-6.43 -27.63,-14.75 -39.48,-24.55 l 3.18,-3.85 2.44,4.36 -65.8,36.69 -45.93,-64.4 55.89,-50.04 3.33,3.72 -4.66,1.79 c -5.52,-14.37 -9.15,-29.57 -10.65,-45.26 l 4.98,-0.47 -1.36,4.81 -72.43,-20.57 13.06,-78.02 74.85,4.12 -0.28,5 -4.57,-2.04 c 6.43,-14.41 14.75,-27.64 24.55,-39.49 l 3.86,3.18 -4.37,2.44 -36.69,-65.79 64.4,-45.94 50.05,55.89 -3.72,3.33 -1.79,-4.67 c 14.36,-5.5 29.56,-9.14 45.26,-10.64 l 0.47,4.98 -4.81,-1.37 20.57,-72.42 78.02,13.06 -4.13,74.85 -4.99,-0.28 2.04,-4.56 c 14.41,6.43 27.63,14.75 39.49,24.55 l -3.18,3.85 -2.44,-4.36 65.79,-36.7 45.93,64.41 -55.88,50.04 -3.33,-3.72 4.67,-1.79 c 5.5,14.37 9.14,29.57 10.63,45.26 l -4.98,0.47 1.36,-4.81 72.44,20.57 -0.73,4.41 -4.94,-0.82 -1.36,4.81 -71.43,-20.28 -0.32,-3.4 c -1.4,-14.78 -4.83,-29.09 -10.01,-42.63 l -1.23,-3.22 51.78,-46.37 -35.55,-49.84 -60.95,34.01 -2.64,-2.18 c -11.18,-9.25 -23.64,-17.08 -37.2,-23.13 l -3.14,-1.4 3.83,-69.36 -60.38,-10.1 -19.05,67.1 -3.4,0.33 c -14.78,1.41 -29.09,4.83 -42.64,10.02 l -3.21,1.23 -46.37,-51.78 -49.84,35.54 34,60.96 -2.18,2.64 c -9.24,11.18 -17.07,23.64 -23.12,37.2 l -1.41,3.14 -69.35,-3.83 -10.1,60.38 67.1,19.05 0.33,3.4 c 1.41,14.78 4.83,29.09 10.02,42.63 l 1.24,3.22 -51.8,46.37 35.55,49.83 60.96,-34 2.64,2.18 c 11.17,9.25 23.64,17.08 37.19,23.13 l 3.14,1.41 -3.82,69.35 60.38,10.1 19.04,-67.11 3.41,-0.32 c 14.77,-1.41 29.08,-4.83 42.63,-10.02 l 3.21,-1.23 46.38,51.78 49.84,-35.54 -34.01,-60.96 2.18,-2.64 c 9.24,-11.18 17.08,-23.64 23.13,-37.2 l 1.4,-3.14 69.36,3.82 10.84,-64.78 4.93,0.83 -1.36,4.81 1.36,-4.81" /><path
         id="path70"
         style="fill:#17282f;fill-opacity:1;fill-rule:nonzero;stroke:none"
         d="m 2431.92,3842.86 4.87,-24.52 9.81,1.95 -4.87,24.52" /><path
         id="path72"
         style="fill:#17282f;fill-opacity:1;fill-rule:nonzero;stroke:none"
         d="m 2445.96,3772.23 9.17,-46.11 9.81,1.95 -9.17,46.11 z m 18.34,-92.21 9.17,-46.11 9.81,1.95 -9.17,46.1 z m 18.34,-92.22 9.17,-46.11 9.81,1.95 -9.17,46.11 z m 18.34,-92.22 9.17,-46.11 9.81,1.95 -9.17,46.11" /><path
         id="path74"
         style="fill:#17282f;fill-opacity:1;fill-rule:nonzero;stroke:none"
         d="m 2519.32,3403.37 4.87,-24.53 9.81,1.95 -4.87,24.52" /><path
         id="path76"
         style="fill:#6ccb94;fill-opacity:1;fill-rule:nonzero;stroke:none"
         d="m 2507.18,3886.78 h 141.2 v 525.67 h -141.2 v -525.67" /><path
         id="path78"
         style="fill:#17282f;fill-opacity:1;fill-rule:nonzero;stroke:none"
         d="m 2507.18,3886.78 v -5 h 141.2 c 1.31,0 2.6,0.53 3.53,1.47 0.93,0.93 1.47,2.21 1.47,3.53 v 525.67 c 0,1.32 -0.54,2.61 -1.47,3.54 -0.93,0.93 -2.22,1.46 -3.53,1.46 h -141.2 c -1.32,0 -2.61,-0.53 -3.54,-1.46 -0.93,-0.93 -1.46,-2.22 -1.46,-3.54 v -525.67 c 0,-1.32 0.53,-2.6 1.46,-3.53 0.93,-0.94 2.22,-1.47 3.54,-1.47 v 5 h 5 v 520.67 h 131.2 v -515.67 h -136.2 v -5 h 5 -5" /><path
         id="path80"
         style="fill:#17282f;fill-opacity:1;fill-rule:nonzero;stroke:none"
         d="m 2318.91,3886.78 h 141.2 v 407.99 h -141.2 v -407.99" /><path
         id="path82"
         style="fill:#17282f;fill-opacity:1;fill-rule:nonzero;stroke:none"
         d="m 2318.91,3886.78 v -5 h 146.2 v 417.99 h -151.2 v -417.99 h 5 v 5 h 5 v 402.99 h 131.2 v -397.99 h -136.2 v -5 h 5 -5" /><path
         id="path84"
         style="fill:#6ccb94;fill-opacity:1;fill-rule:nonzero;stroke:none"
         d="m 2130.64,3886.78 h 141.2 v 313.84 h -141.2 v -313.84" /><path
         id="path86"
         style="fill:#17282f;fill-opacity:1;fill-rule:nonzero;stroke:none"
         d="m 2130.64,3886.78 v -5 h 141.2 c 1.32,0 2.6,0.53 3.54,1.47 0.93,0.93 1.46,2.21 1.46,3.53 v 313.84 c 0,1.32 -0.53,2.6 -1.46,3.54 -0.94,0.93 -2.22,1.46 -3.54,1.46 h -141.2 c -1.32,0 -2.61,-0.53 -3.54,-1.46 -0.93,-0.94 -1.46,-2.22 -1.46,-3.54 v -313.84 c 0,-1.32 0.53,-2.6 1.46,-3.53 0.93,-0.94 2.22,-1.47 3.54,-1.47 v 5 h 5 v 308.84 h 131.2 v -303.84 h -136.2 v -5 h 5 -5" /><path
         id="path88"
         style="fill:#17282f;fill-opacity:1;fill-rule:nonzero;stroke:none"
         d="m 1942.37,3886.78 h 141.2 v 235.38 h -141.2 v -235.38" /><path
         id="path90"
         style="fill:#17282f;fill-opacity:1;fill-rule:nonzero;stroke:none"
         d="m 1942.37,3886.78 v -5 h 146.2 v 245.38 h -151.2 v -245.38 h 5 v 5 h 5 v 230.38 h 131.2 v -225.38 h -136.2 v -5 h 5 -5" /><path
         id="path92"
         style="fill:#17282f;fill-opacity:1;fill-rule:nonzero;stroke:none"
         d="m 2008.42,4156.89 -13.78,18.11 144.37,109.85 71.58,-23.85 118.2,127.29 69.55,-21.18 126.06,144.5 53.39,-34.56 55.45,39.23 13.15,-18.58 -68.03,-48.11 -49.77,32.2 -122.78,-140.74 -70.03,21.32 -118.48,-127.6 -74.08,24.68 -134.8,-102.56" /><path
         id="path94"
         style="fill:#17282f;fill-opacity:1;fill-rule:nonzero;stroke:none"
         d="m 2657.87,4454.43 44.61,96.89 -106.21,-9.79 z" /><path
         id="path96"
         style="fill:#17282f;fill-opacity:1;fill-rule:nonzero;stroke:none"
         d="m 1327.1,3858.32 20.85,-13.78 5.52,8.34 -20.86,13.78" /><path
         id="path98"
         style="fill:#17282f;fill-opacity:1;fill-rule:nonzero;stroke:none"
         d="m 1389.76,3816.89 41.81,-27.64 5.52,8.34 -41.81,27.64 z m 83.62,-55.28 41.81,-27.65 5.52,8.34 -41.81,27.65 z m 83.62,-55.29 41.81,-27.64 5.52,8.34 -41.81,27.64 z m 83.62,-55.29 41.82,-27.64 5.51,8.34 -41.81,27.65 z m 83.63,-55.28 41.81,-27.65 5.51,8.35 -41.81,27.64 z m 83.62,-55.29 41.81,-27.64 5.51,8.34 -41.81,27.64 z m 83.62,-55.29 41.81,-27.64 5.51,8.34 -41.81,27.64 z m 83.62,-55.28 41.81,-27.65 5.52,8.34 -41.82,27.65" /><path
         id="path100"
         style="fill:#17282f;fill-opacity:1;fill-rule:nonzero;stroke:none"
         d="m 2058.73,3374.6 20.85,-13.79 5.52,8.34 -20.85,13.79" /><path
         id="path102"
         style="fill:#ffffff;fill-opacity:1;fill-rule:nonzero;stroke:none"
         d="M 1445.97,3731 H 592.453 v 496.55 c 0,35.21 28.551,63.76 63.762,63.76 h 725.995 c 35.22,0 63.76,-28.55 63.76,-63.76 V 3731" /><path
         id="path104"
         style="fill:#17282f;fill-opacity:1;fill-rule:nonzero;stroke:none"
         d="m 1445.97,3731 v 5 H 597.453 v 491.55 c 0.004,16.24 6.57,30.9 17.215,41.55 10.648,10.64 25.305,17.2 41.547,17.21 h 725.995 c 16.24,-0.01 30.9,-6.57 41.55,-17.21 10.64,-10.65 17.21,-25.31 17.21,-41.55 V 3731 h 5 v 5 -5 h 5 v 496.55 c 0,37.98 -30.78,68.75 -68.76,68.76 H 656.215 c -37.973,-0.01 -68.758,-30.78 -68.762,-68.76 V 3731 c 0,-1.31 0.535,-2.6 1.465,-3.53 0.934,-0.93 2.219,-1.47 3.535,-1.47 h 853.517 c 1.32,0 2.6,0.54 3.54,1.47 0.93,0.93 1.46,2.22 1.46,3.53 h -5" /><path
         id="path106"
         style="fill:#17282f;fill-opacity:1;fill-rule:nonzero;stroke:none"
         d="m 807.781,4061.14 h 404.279 c 2.76,0 5,2.24 5,5 0,2.76 -2.24,5 -5,5 H 807.781 c -2.761,0 -5,-2.24 -5,-5 0,-2.76 2.239,-5 5,-5" /><path
         id="path108"
         style="fill:#17282f;fill-opacity:1;fill-rule:nonzero;stroke:none"
         d="m 807.781,3995.93 h 404.279 c 2.76,0 5,2.23 5,5 0,2.76 -2.24,5 -5,5 H 807.781 c -2.761,0 -5,-2.24 -5,-5 0,-2.77 2.239,-5 5,-5" /><path
         id="path110"
         style="fill:#17282f;fill-opacity:1;fill-rule:nonzero;stroke:none"
         d="m 807.781,3930.72 h 404.279 c 2.76,0 5,2.24 5,5 0,2.76 -2.24,5 -5,5 H 807.781 c -2.761,0 -5,-2.24 -5,-5 0,-2.76 2.239,-5 5,-5" /><path
         id="path112"
         style="fill:#17282f;fill-opacity:1;fill-rule:nonzero;stroke:none"
         d="m 807.781,3865.52 h 404.279 c 2.76,0 5,2.23 5,5 0,2.76 -2.24,5 -5,5 H 807.781 c -2.761,0 -5,-2.24 -5,-5 0,-2.77 2.239,-5 5,-5" /><path
         id="path114"
         style="fill:#6ccb94;fill-opacity:1;fill-rule:nonzero;stroke:none"
         d="m 1445.97,4202.83 v 36.29 c 0,28.82 -23.36,52.19 -52.19,52.19 H 644.641 c -28.817,0 -52.188,-23.37 -52.188,-52.19 v -36.29 h 853.517" /><path
         id="path116"
         style="fill:#17282f;fill-opacity:1;fill-rule:nonzero;stroke:none"
         d="m 1445.97,4202.83 h 5 v 36.29 c 0,31.59 -25.6,57.18 -57.19,57.19 H 644.641 v 0 c -31.582,-0.01 -57.184,-25.6 -57.188,-57.19 v -36.29 c 0,-1.31 0.535,-2.6 1.465,-3.53 0.934,-0.94 2.219,-1.47 3.535,-1.47 h 853.517 c 1.32,0 2.6,0.53 3.54,1.47 0.93,0.93 1.46,2.22 1.46,3.53 h -5 v 5 H 597.453 v 31.29 c 0.004,13.05 5.277,24.81 13.824,33.37 8.555,8.55 20.321,13.81 33.364,13.82 h 749.139 c 13.05,-0.01 24.81,-5.27 33.37,-13.82 8.55,-8.56 13.82,-20.32 13.82,-33.37 v -36.29 h 5 v 5 -5" /><path
         id="path118"
         style="fill:#17282f;fill-opacity:1;fill-rule:nonzero;stroke:none"
         d="m 1300.04,4244.79 c 0,7.27 -5.9,13.17 -13.18,13.17 -7.27,0 -13.16,-5.9 -13.16,-13.17 0,-7.27 5.89,-13.18 13.16,-13.18 7.28,0 13.18,5.91 13.18,13.18" /><path
         id="path120"
         style="fill:#17282f;fill-opacity:1;fill-rule:nonzero;stroke:none"
         d="m 1300.04,4244.79 h 5 c -0.01,10.03 -8.14,18.16 -18.18,18.17 -10.03,-0.01 -18.16,-8.14 -18.16,-18.17 0,-10.04 8.13,-18.17 18.16,-18.18 10.04,0.01 18.17,8.14 18.18,18.18 h -5 -5 c -0.01,-4.51 -3.66,-8.16 -8.18,-8.18 -4.5,0.02 -8.16,3.67 -8.16,8.18 0,4.5 3.66,8.16 8.16,8.17 4.52,-0.01 8.17,-3.67 8.18,-8.17 h 5" /><path
         id="path122"
         style="fill:#17282f;fill-opacity:1;fill-rule:nonzero;stroke:none"
         d="m 1352.72,4244.79 c 0,7.27 -5.9,13.17 -13.18,13.17 -7.27,0 -13.16,-5.9 -13.16,-13.17 0,-7.27 5.89,-13.18 13.16,-13.18 7.28,0 13.18,5.91 13.18,13.18" /><path
         id="path124"
         style="fill:#17282f;fill-opacity:1;fill-rule:nonzero;stroke:none"
         d="m 1352.72,4244.79 h 5 c -0.01,10.03 -8.14,18.16 -18.18,18.17 -10.03,-0.01 -18.16,-8.14 -18.16,-18.17 0,-10.04 8.13,-18.17 18.16,-18.18 10.04,0.01 18.18,8.14 18.18,18.18 h -5 -5 c -0.01,-4.51 -3.66,-8.16 -8.18,-8.18 -4.5,0.02 -8.16,3.67 -8.16,8.18 0,4.5 3.66,8.16 8.16,8.17 4.52,-0.01 8.17,-3.67 8.18,-8.17 h 5" /><path
         id="path126"
         style="fill:#17282f;fill-opacity:1;fill-rule:nonzero;stroke:none"
         d="m 1405.4,4244.79 c 0,7.27 -5.9,13.17 -13.17,13.17 -7.28,0 -13.17,-5.9 -13.17,-13.17 0,-7.27 5.89,-13.18 13.17,-13.18 7.27,0 13.17,5.91 13.17,13.18" /><path
         id="path128"
         style="fill:#17282f;fill-opacity:1;fill-rule:nonzero;stroke:none"
         d="m 1405.4,4244.79 h 5 c 0,10.03 -8.14,18.16 -18.17,18.17 -10.04,-0.01 -18.17,-8.14 -18.17,-18.17 0,-10.04 8.13,-18.17 18.17,-18.18 10.03,0.01 18.17,8.14 18.17,18.18 h -5 -5 c -0.01,-4.51 -3.66,-8.16 -8.17,-8.18 -4.51,0.02 -8.17,3.67 -8.17,8.18 0,4.5 3.66,8.16 8.17,8.17 4.51,-0.01 8.16,-3.67 8.17,-8.17 h 5" /><path
         id="path130"
         style="fill:#17282f;fill-opacity:1;fill-rule:nonzero;stroke:none"
         d="m 484.18,3611.92 v 0 c -14.328,11.86 -16.016,33.22 -3.731,47.18 l 239.735,275.05 36.636,-30.34 -225.59,-286.76 c -11.429,-14.67 -32.726,-17 -47.05,-5.13" /><path
         id="path132"
         style="fill:#17282f;fill-opacity:1;fill-rule:nonzero;stroke:none"
         d="m 484.18,3611.92 3.187,3.85 c -6.703,5.55 -10.129,13.51 -10.137,21.57 0.004,6.57 2.282,13.12 6.973,18.46 l 0.016,0.02 236.531,271.37 29.125,-24.12 -222.574,-282.93 -0.016,-0.02 c -5.539,-7.1 -13.754,-10.78 -22.094,-10.78 -6.289,0 -12.578,2.09 -17.824,6.43 v 0 l -3.187,-3.85 -3.192,-3.85 c 7.078,-5.87 15.692,-8.74 24.203,-8.73 11.274,-0.01 22.493,5.02 29.985,14.64 l -0.016,-0.02 225.59,286.76 c 1.68,2.14 1.352,5.21 -0.742,6.94 L 723.375,3938 c -2.094,1.73 -5.176,1.48 -6.961,-0.57 l -239.734,-275.04 0.015,0.01 c -6.347,-7.2 -9.468,-16.18 -9.465,-25.06 v 0 c -0.007,-10.89 4.684,-21.76 13.758,-29.27 v 0 l 3.192,3.85" /><path
         id="path134"
         style="fill:#ffffff;fill-opacity:1;fill-rule:nonzero;stroke:none"
         d="M 656.387,3860.96 480.449,3659.1 c -12.285,-13.96 -10.597,-35.32 3.731,-47.18 14.324,-11.87 35.621,-9.54 47.05,5.13 l 166.418,211.55 -41.261,32.36" /><path
         id="path136"
         style="fill:#17282f;fill-opacity:1;fill-rule:nonzero;stroke:none"
         d="m 656.387,3860.96 -3.77,3.29 -175.937,-201.86 0.015,0.01 c -6.347,-7.2 -9.468,-16.18 -9.465,-25.06 -0.007,-10.89 4.684,-21.76 13.758,-29.27 v 0 c 7.078,-5.87 15.692,-8.74 24.203,-8.73 11.274,-0.01 22.493,5.02 29.985,14.64 l -0.016,-0.02 166.418,211.55 c 0.828,1.04 1.195,2.36 1.035,3.69 -0.16,1.32 -0.828,2.51 -1.879,3.33 l -41.261,32.36 c -2.09,1.65 -5.114,1.36 -6.856,-0.64 l 3.77,-3.29 -3.086,-3.93 37.324,-29.28 -163.324,-207.61 -0.016,-0.02 c -5.539,-7.1 -13.754,-10.78 -22.094,-10.78 -6.289,0 -12.578,2.09 -17.824,6.43 v 0 c -6.707,5.55 -10.129,13.51 -10.137,21.57 0.004,6.57 2.282,13.12 6.973,18.46 l 0.016,0.02 175.937,201.86 -3.769,3.28 -3.086,-3.93 3.086,3.93" /><path
         id="path138"
         style="fill:#17282f;fill-opacity:1;fill-rule:nonzero;stroke:none"
         d="m 741.141,3922.17 c -55.043,45.58 -62.719,127.15 -17.137,182.2 45.582,55.05 127.152,62.72 182.199,17.14 55.047,-45.58 62.723,-127.15 17.141,-182.2 -45.582,-55.05 -127.153,-62.72 -182.203,-17.14 z m 178.984,216.15 c -64.328,53.27 -159.668,44.31 -212.934,-20.03 -53.269,-64.33 -44.3,-159.66 20.028,-212.93 64.332,-53.27 159.668,-44.3 212.937,20.03 53.27,64.33 44.301,159.66 -20.031,212.93" /><path
         id="path140"
         style="fill:#17282f;fill-opacity:1;fill-rule:nonzero;stroke:none"
         d="m 741.141,3922.17 3.187,3.85 c -29.715,24.61 -45.055,60.09 -45.062,95.89 0.004,27.96 9.363,56.05 28.589,79.27 24.61,29.72 60.094,45.06 95.891,45.07 27.961,0 56.047,-9.36 79.27,-28.59 29.718,-24.61 45.058,-60.09 45.066,-95.89 -0.008,-27.96 -9.363,-56.05 -28.59,-79.27 -24.609,-29.72 -60.094,-45.06 -95.89,-45.07 -27.961,0.01 -56.047,9.36 -79.274,28.59 l -3.187,-3.85 -3.188,-3.85 c 25.059,-20.76 55.465,-30.89 85.649,-30.89 38.636,0 77.023,16.6 103.593,48.69 20.754,25.06 30.891,55.47 30.887,85.65 0.004,38.63 -16.602,77.02 -48.687,103.59 -25.063,20.76 -55.465,30.89 -85.649,30.89 -38.637,0.01 -77.023,-16.6 -103.594,-48.69 -20.754,-25.06 -30.89,-55.46 -30.886,-85.65 -0.008,-38.64 16.597,-77.02 48.687,-103.59 z m 178.984,216.15 3.191,3.86 c -29.132,24.12 -64.472,35.9 -99.558,35.9 -44.914,0 -89.535,-19.29 -120.418,-56.6 -24.125,-29.13 -35.906,-64.47 -35.902,-99.56 -0.008,-44.91 19.292,-89.53 56.593,-120.42 29.133,-24.12 64.469,-35.9 99.555,-35.89 44.914,-0.01 89.535,19.29 120.422,56.59 24.125,29.13 35.906,64.47 35.902,99.56 0.008,44.91 -19.293,89.53 -56.594,120.42 l -3.191,-3.86 -3.187,-3.85 c 34.929,-28.93 52.964,-70.64 52.972,-112.71 -0.004,-32.87 -11.008,-65.88 -33.605,-93.18 -28.926,-34.94 -70.641,-52.97 -112.719,-52.97 -32.863,0 -65.883,11 -93.176,33.6 -34.933,28.93 -52.969,70.64 -52.972,112.71 0.003,32.87 11.003,65.88 33.605,93.18 28.926,34.94 70.637,52.97 112.715,52.98 32.863,-0.01 65.883,-11.01 93.18,-33.61 l 3.187,3.85" /><path
         id="path142"
         style="fill:#17282f;fill-opacity:1;fill-rule:nonzero;stroke:none"
         d="m 1031.35,2669.68 h 25 v 10 h -25 z" /><path
         id="path144"
         style="fill:#17282f;fill-opacity:1;fill-rule:nonzero;stroke:none"
         d="m 1106.45,2669.68 h 50.1016 v 10 H 1106.45 Z m 100.2,0 h 50.1133 v 10 H 1206.65 Z m 100.21,0 h 50.1016 v 10 H 1306.86 Z m 100.2,0 h 50.1133 v 10 H 1407.06 Z m 100.21,0 h 50.1016 v 10 H 1507.27 Z m 100.2,0 h 50.1094 v 10 H 1607.47 Z m 100.21,0 h 50.1016 v 10 H 1707.68 Z m 100.2,0 h 50.1094 v 10 H 1807.88 Z m 100.21,0 h 50.1016 v 10 H 1908.09 Z" /><path
         id="path146"
         style="fill:#17282f;fill-opacity:1;fill-rule:nonzero;stroke:none"
         d="m 2008.29,2669.68 h 25 v 10 h -25 z" /><path
         id="path148"
         style="fill:#17282f;fill-opacity:1;fill-rule:nonzero;stroke:none"
         d="m 619.992,3041.82 h 565.318 c 2.76,0 5,2.24 5,5 0,2.76 -2.24,5 -5,5 H 619.992 c -2.762,0 -5,-2.24 -5,-5 0,-2.76 2.238,-5 5,-5" /><path
         id="path150"
         style="fill:#17282f;fill-opacity:1;fill-rule:nonzero;stroke:none"
         d="m 907.648,2768.31 v 278.51 c 0,2.76 -2.238,5 -5,5 -2.757,0 -5,-2.24 -5,-5 v -278.51 c 0,-2.76 2.243,-5 5,-5 2.762,0 5,2.24 5,5" /><path
         id="path152"
         style="fill:#17282f;fill-opacity:1;fill-rule:nonzero;stroke:none"
         d="M 449.66,2977.49 V 2625.2 c 0,-2.76 2.238,-5 5,-5 2.762,0 5,2.24 5,5 v 352.29 c 0,2.76 -2.238,5 -5,5 -2.762,0 -5,-2.24 -5,-5" /><path
         id="path154"
         style="fill:#17282f;fill-opacity:1;fill-rule:nonzero;stroke:none"
         d="m 998.645,2583.17 h 506.985 v -304.62 c 0,-2.76 2.24,-5 5,-5 2.76,0 5,2.24 5,5 v 309.62 c 0,1.31 -0.53,2.6 -1.46,3.53 -0.93,0.93 -2.22,1.47 -3.54,1.47 H 998.645 c -2.758,0 -5,-2.24 -5,-5 0,-2.76 2.242,-5 5,-5" /><path
         id="path156"
         style="fill:#17282f;fill-opacity:1;fill-rule:nonzero;stroke:none"
         d="m 1180.31,2582.84 v -298.67 c 0,-2.76 2.24,-5 5,-5 2.76,0 5,2.24 5,5 v 298.67 c 0,2.76 -2.24,5 -5,5 -2.76,0 -5,-2.24 -5,-5" /><path
         id="path158"
         style="fill:#17282f;fill-opacity:1;fill-rule:nonzero;stroke:none"
         d="M 721.32,2913.49 H 353.336 v 250.66 H 721.32 v -250.66" /><path
         id="path160"
         style="fill:#17282f;fill-opacity:1;fill-rule:nonzero;stroke:none"
         d="m 721.32,2913.49 v 5 H 358.336 v 240.66 H 716.32 v -245.66 h 5 v 5 -5 h 5 v 255.66 H 348.336 V 2908.49 H 726.32 v 5 h -5" /><path
         id="path162"
         style="fill:#6ccb94;fill-opacity:1;fill-rule:nonzero;stroke:none"
         d="m 1417.3,2913.49 h -367.98 v 250.66 h 367.98 v -250.66" /><path
         id="path164"
         style="fill:#17282f;fill-opacity:1;fill-rule:nonzero;stroke:none"
         d="m 1417.3,2913.49 v 5 h -362.98 v 240.66 h 357.98 v -245.66 h 5 v 5 -5 h 5 v 250.66 c 0,1.32 -0.53,2.61 -1.46,3.54 -0.93,0.93 -2.22,1.46 -3.54,1.46 h -367.98 c -1.32,0 -2.61,-0.53 -3.54,-1.46 -0.93,-0.93 -1.46,-2.22 -1.46,-3.54 v -250.66 c 0,-1.31 0.53,-2.6 1.46,-3.53 0.93,-0.93 2.22,-1.47 3.54,-1.47 h 367.98 c 1.32,0 2.61,0.54 3.54,1.47 0.93,0.93 1.46,2.22 1.46,3.53 h -5" /><path
         id="path166"
         style="fill:#6ccb94;fill-opacity:1;fill-rule:nonzero;stroke:none"
         d="m 1306.41,2198.26 h -235.77 v 160.58 h 235.77 v -160.58" /><path
         id="path168"
         style="fill:#17282f;fill-opacity:1;fill-rule:nonzero;stroke:none"
         d="m 1306.41,2198.26 v 5 h -230.77 v 150.58 h 225.76 l 0.01,-155.58 h 5 v 5 -5 h 5 v 160.58 c 0,1.32 -0.54,2.61 -1.47,3.54 -0.93,0.93 -2.22,1.46 -3.53,1.46 h -235.77 c -1.31,0 -2.6,-0.53 -3.53,-1.46 -0.93,-0.93 -1.47,-2.22 -1.47,-3.54 v -160.58 c 0,-1.32 0.54,-2.61 1.47,-3.54 0.93,-0.93 2.22,-1.46 3.53,-1.46 h 235.77 c 1.31,0 2.6,0.53 3.53,1.46 0.93,0.93 1.47,2.22 1.47,3.54 h -5" /><path
         id="path170"
         style="fill:#ffffff;fill-opacity:1;fill-rule:nonzero;stroke:none"
         d="M 586.426,2544.91 H 350.668 v 160.59 h 235.758 v -160.59" /><path
         id="path172"
         style="fill:#17282f;fill-opacity:1;fill-rule:nonzero;stroke:none"
         d="m 586.426,2544.91 v 5 H 355.668 v 150.59 h 225.758 v -155.59 h 5 v 5 -5 h 5 v 160.59 c 0,1.31 -0.535,2.6 -1.465,3.53 -0.934,0.93 -2.219,1.47 -3.535,1.47 H 350.668 c -1.316,0 -2.605,-0.54 -3.535,-1.47 -0.934,-0.93 -1.465,-2.22 -1.465,-3.53 v -160.59 c 0,-1.32 0.531,-2.6 1.465,-3.53 0.93,-0.94 2.219,-1.47 3.535,-1.47 h 235.758 c 1.316,0 2.601,0.53 3.535,1.47 0.93,0.93 1.465,2.21 1.465,3.53 h -5" /><path
         id="path174"
         style="fill:#17282f;fill-opacity:1;fill-rule:nonzero;stroke:none"
         d="m 1615.73,2198.26 h -235.76 v 160.58 h 235.76 v -160.58" /><path
         id="path176"
         style="fill:#17282f;fill-opacity:1;fill-rule:nonzero;stroke:none"
         d="m 1615.73,2198.26 v 5 h -230.76 v 150.58 h 225.76 v -155.58 h 5 v 5 -5 h 5 v 165.58 h -245.76 v -170.58 h 245.76 v 5 h -5" /><path
         id="path178"
         style="fill:#6ccb94;fill-opacity:1;fill-rule:nonzero;stroke:none"
         d="M 1088.13,2582.84 902.648,2397.36 717.172,2582.84 902.648,2768.31 1088.13,2582.84" /><path
         id="path180"
         style="fill:#17282f;fill-opacity:1;fill-rule:nonzero;stroke:none"
         d="m 1088.13,2582.84 -3.54,3.53 -181.942,-181.94 -178.406,178.41 178.406,178.4 181.942,-181.94 3.54,3.54 -3.54,3.53 3.54,-3.53 3.53,3.53 -185.472,185.48 c -1.954,1.95 -5.122,1.95 -7.075,0 L 713.637,2586.37 c -1.953,-1.95 -1.953,-5.12 0,-7.07 l 185.476,-185.48 c 0.934,-0.93 2.219,-1.46 3.535,-1.46 1.321,0 2.606,0.53 3.54,1.46 l 185.472,185.48 c 0.94,0.93 1.47,2.22 1.47,3.54 0,1.31 -0.53,2.6 -1.47,3.53 l -3.53,-3.53" /><path
         id="path182"
         style="fill:#17282f;fill-opacity:1;fill-rule:nonzero;stroke:none"
         d="m 1586.45,1482.14 23.66,8.07 -3.24,9.47 -23.65,-8.08" /><path
         id="path184"
         style="fill:#17282f;fill-opacity:1;fill-rule:nonzero;stroke:none"
         d="m 1657.58,1506.41 47.47,16.21 -3.23,9.46 -47.47,-16.2 z m 94.94,32.42 47.47,16.2 -3.23,9.47 -47.47,-16.21 z m 94.94,32.41 47.47,16.2 -3.23,9.47 -47.47,-16.21 z m 94.94,32.41 47.47,16.2 -3.23,9.47 -47.47,-16.21" /><path
         id="path186"
         style="fill:#17282f;fill-opacity:1;fill-rule:nonzero;stroke:none"
         d="m 2037.35,1636.06 23.66,8.08 -3.23,9.46 -23.66,-8.07" /><path
         id="path188"
         style="fill:#ffffff;fill-opacity:1;fill-rule:nonzero;stroke:none"
         d="M 401.555,1642.34 V 1377.62 H 1528.63 v 264.72 H 401.555" /><path
         id="path190"
         style="fill:#17282f;fill-opacity:1;fill-rule:nonzero;stroke:none"
         d="m 401.555,1642.34 h -5 v -264.72 c 0,-1.32 0.535,-2.6 1.465,-3.53 0.933,-0.94 2.218,-1.47 3.535,-1.47 H 1528.63 c 1.31,0 2.6,0.53 3.53,1.47 0.93,0.93 1.47,2.21 1.47,3.53 v 264.72 c 0,1.31 -0.54,2.6 -1.47,3.53 -0.93,0.93 -2.22,1.47 -3.53,1.47 H 401.555 c -1.317,0 -2.602,-0.54 -3.535,-1.47 -0.93,-0.93 -1.465,-2.22 -1.465,-3.53 h 5 v -5 H 1523.63 V 1382.62 H 406.555 v 259.72 h -5 v -5 5" /><path
         id="path192"
         style="fill:#ffffff;fill-opacity:1;fill-rule:nonzero;stroke:none"
         d="M 935.805,963.762 H 1524.9 V 1314.24 H 935.805 V 963.762" /><path
         id="path194"
         style="fill:#17282f;fill-opacity:1;fill-rule:nonzero;stroke:none"
         d="m 935.805,963.762 v -5 H 1524.9 c 1.32,0 2.61,0.539 3.54,1.468 0.93,0.93 1.46,2.219 1.46,3.532 v 350.478 c 0,1.32 -0.53,2.61 -1.46,3.54 -0.93,0.93 -2.22,1.46 -3.54,1.46 H 935.805 c -1.317,0 -2.606,-0.53 -3.535,-1.46 -0.93,-0.93 -1.465,-2.22 -1.465,-3.54 V 963.762 c 0,-1.313 0.535,-2.602 1.465,-3.532 0.929,-0.929 2.218,-1.468 3.535,-1.468 v 5 h 5 V 1309.24 H 1519.9 V 968.762 H 935.805 v -5 h 5 -5" /><path
         id="path196"
         style="fill:#17282f;fill-opacity:1;fill-rule:nonzero;stroke:none"
         d="m 935.805,963.762 205.065,164.058 85.75,-63.39 178.97,137.96 115.58,-111.86 V 963.762 H 935.805" /><path
         id="path198"
         style="fill:#17282f;fill-opacity:1;fill-rule:nonzero;stroke:none"
         d="m 935.805,963.762 3.125,-3.903 202.06,161.651 82.66,-61.1 c 1.8,-1.33 4.26,-1.31 6.03,0.06 l 175.54,135.32 110.95,-107.38 V 968.762 H 935.805 v -5 l 3.125,-3.903 -3.125,3.903 v -5 h 585.365 c 1.32,0 2.61,0.539 3.54,1.468 0.93,0.93 1.46,2.219 1.46,3.532 v 126.768 c 0,1.36 -0.55,2.65 -1.52,3.59 l -115.58,111.86 c -1.78,1.72 -4.57,1.88 -6.53,0.37 l -175.98,-135.66 -82.72,61.15 c -1.82,1.34 -4.32,1.3 -6.09,-0.12 L 932.68,967.672 c -1.66,-1.332 -2.297,-3.551 -1.594,-5.563 0.707,-2.007 2.59,-3.347 4.719,-3.347 v 5" /><path
         id="path200"
         style="fill:#17282f;fill-opacity:1;fill-rule:nonzero;stroke:none"
         d="m 1077.49,1224.76 c 0,-22.66 -18.37,-41.02 -41.02,-41.02 -22.65,0 -41.005,18.36 -41.005,41.02 0,22.65 18.355,41.01 41.005,41.01 22.65,0 41.02,-18.36 41.02,-41.01" /><path
         id="path202"
         style="fill:#17282f;fill-opacity:1;fill-rule:nonzero;stroke:none"
         d="m 1077.49,1224.76 h -5 c -0.04,-19.89 -16.13,-35.98 -36.02,-36.02 -19.88,0.04 -35.97,16.13 -36.01,36.02 0.04,19.88 16.12,35.97 36.01,36.01 19.89,-0.04 35.98,-16.13 36.02,-36.01 h 5 5 c 0,25.41 -20.6,46 -46.02,46.01 -25.41,-0.01 -46.005,-20.6 -46.005,-46.01 0,-25.42 20.595,-46.01 46.005,-46.02 25.42,0.01 46.02,20.6 46.02,46.02 h -5" /><path
         id="path204"
         style="fill:#ffffff;fill-opacity:1;fill-rule:nonzero;stroke:none"
         d="M 935.805,564.82 H 1524.9 V 915.301 H 935.805 V 564.82" /><path
         id="path206"
         style="fill:#17282f;fill-opacity:1;fill-rule:nonzero;stroke:none"
         d="m 935.805,564.82 v -5 H 1524.9 c 1.32,0 2.61,0.532 3.54,1.461 0.93,0.93 1.46,2.219 1.46,3.539 v 350.481 c 0,1.308 -0.53,2.597 -1.46,3.527 -0.93,0.934 -2.22,1.473 -3.54,1.473 H 935.805 c -1.317,0 -2.606,-0.539 -3.535,-1.473 -0.93,-0.93 -1.465,-2.219 -1.465,-3.527 V 564.82 c 0,-1.32 0.535,-2.609 1.465,-3.539 0.929,-0.929 2.218,-1.461 3.535,-1.461 v 5 h 5 V 910.301 H 1519.9 V 569.82 H 935.805 v -5 h 5 -5" /><path
         id="path208"
         style="fill:#17282f;fill-opacity:1;fill-rule:nonzero;stroke:none"
         d="m 935.805,564.82 205.065,164.051 85.75,-63.383 178.97,137.953 115.58,-111.851 V 564.82 H 935.805" /><path
         id="path210"
         style="fill:#17282f;fill-opacity:1;fill-rule:nonzero;stroke:none"
         d="m 935.805,564.82 3.125,-3.91 202.06,161.649 82.66,-61.09 c 1.8,-1.328 4.26,-1.297 6.03,0.062 L 1405.22,796.84 1516.17,689.469 V 569.82 H 935.805 v -5 l 3.125,-3.91 -3.125,3.91 v -5 h 585.365 c 1.32,0 2.61,0.532 3.54,1.461 0.93,0.93 1.46,2.219 1.46,3.539 v 126.77 c 0,1.351 -0.55,2.648 -1.52,3.59 l -115.58,111.851 c -1.78,1.719 -4.57,1.879 -6.53,0.367 l -175.98,-135.636 -82.72,61.129 c -1.82,1.347 -4.32,1.3 -6.09,-0.11 L 932.68,568.719 c -1.66,-1.328 -2.297,-3.547 -1.594,-5.559 0.707,-2.012 2.59,-3.34 4.719,-3.34 v 5" /><path
         id="path212"
         style="fill:#17282f;fill-opacity:1;fill-rule:nonzero;stroke:none"
         d="m 1077.49,825.809 c 0,-22.649 -18.37,-41.008 -41.02,-41.008 -22.65,0 -41.005,18.359 -41.005,41.008 0,22.652 18.355,41.011 41.005,41.011 22.65,0 41.02,-18.359 41.02,-41.011" /><path
         id="path214"
         style="fill:#17282f;fill-opacity:1;fill-rule:nonzero;stroke:none"
         d="m 1077.49,825.809 h -5 c -0.04,-19.891 -16.13,-35.977 -36.02,-36.008 -19.88,0.031 -35.97,16.117 -36.01,36.008 0.04,19.89 16.12,35.972 36.01,36.011 19.89,-0.039 35.98,-16.121 36.02,-36.011 h 5 5 c 0,25.421 -20.6,46.011 -46.02,46.011 -25.41,0 -46.005,-20.601 -46.005,-46.011 0,-25.411 20.595,-46.008 46.005,-46.008 25.42,0 46.02,20.59 46.02,46.008 h -5" /><path
         id="path216"
         style="fill:#17282f;fill-opacity:1;fill-rule:nonzero;stroke:none"
         d="m 418.723,1282.86 h 447.762 v 10 H 418.723 Z" /><path
         id="path218"
         style="fill:#17282f;fill-opacity:1;fill-rule:nonzero;stroke:none"
         d="m 418.723,1183.36 h 447.762 v 10 H 418.723 Z" /><path
         id="path220"
         style="fill:#17282f;fill-opacity:1;fill-rule:nonzero;stroke:none"
         d="m 418.723,1083.86 h 447.762 v 10 H 418.723 Z" /><path
         id="path222"
         style="fill:#17282f;fill-opacity:1;fill-rule:nonzero;stroke:none"
         d="m 418.723,984.352 h 447.762 v 10 H 418.723 Z" /><path
         id="path224"
         style="fill:#17282f;fill-opacity:1;fill-rule:nonzero;stroke:none"
         d="m 418.723,884.852 h 447.762 v 10 H 418.723 Z" /><path
         id="path226"
         style="fill:#17282f;fill-opacity:1;fill-rule:nonzero;stroke:none"
         d="m 418.723,785.352 h 447.762 v 10 H 418.723 Z" /><path
         id="path228"
         style="fill:#17282f;fill-opacity:1;fill-rule:nonzero;stroke:none"
         d="m 418.723,685.84 h 447.762 v 10 H 418.723 Z" /><path
         id="path230"
         style="fill:#17282f;fill-opacity:1;fill-rule:nonzero;stroke:none"
         d="m 418.723,586.34 h 447.762 v 10 H 418.723 Z" /><path
         id="path232"
         style="fill:#ffffff;fill-opacity:1;fill-rule:nonzero;stroke:none"
         d="M 3851.96,3239.7 V 2756.16 H 5558.54 V 3239.7 H 3851.96" /><path
         id="path234"
         style="fill:#17282f;fill-opacity:1;fill-rule:nonzero;stroke:none"
         d="m 3851.96,3239.7 h -5 v -483.54 c 0,-1.32 0.54,-2.61 1.47,-3.54 0.93,-0.93 2.22,-1.46 3.53,-1.46 h 1706.58 c 1.32,0 2.61,0.53 3.54,1.46 0.93,0.93 1.46,2.22 1.46,3.54 v 483.54 c 0,1.32 -0.53,2.61 -1.46,3.54 -0.93,0.93 -2.22,1.46 -3.54,1.46 H 3851.96 c -1.31,0 -2.6,-0.53 -3.53,-1.46 -0.93,-0.93 -1.47,-2.22 -1.47,-3.54 h 5 v -5 H 5553.54 V 2761.16 H 3856.96 v 478.54 h -5 v -5 5" /><path
         id="path236"
         style="fill:#ffffff;fill-opacity:1;fill-rule:nonzero;stroke:none"
         d="m 4475.69,2000.2 h 1076.05 v 640.18 H 4475.69 V 2000.2" /><path
         id="path238"
         style="fill:#17282f;fill-opacity:1;fill-rule:nonzero;stroke:none"
         d="m 4475.69,2000.2 v -5 h 1076.05 c 1.31,0 2.6,0.53 3.53,1.46 0.93,0.93 1.47,2.22 1.47,3.54 v 640.18 c 0,1.32 -0.54,2.6 -1.47,3.54 -0.93,0.93 -2.22,1.46 -3.53,1.46 H 4475.69 c -1.31,0 -2.6,-0.53 -3.53,-1.46 -0.93,-0.94 -1.47,-2.22 -1.47,-3.54 V 2000.2 c 0,-1.32 0.54,-2.61 1.47,-3.54 0.93,-0.93 2.22,-1.46 3.53,-1.46 v 5 h 5 v 635.18 H 5546.74 V 2005.2 H 4475.69 v -5 h 5 -5" /><path
         id="path240"
         style="fill:#17282f;fill-opacity:1;fill-rule:nonzero;stroke:none"
         d="m 4475.69,2000.2 374.57,299.66 156.64,-115.78 326.91,251.99 211.12,-204.32 V 2000.2 H 4475.69" /><path
         id="path242"
         style="fill:#17282f;fill-opacity:1;fill-rule:nonzero;stroke:none"
         d="m 4475.69,2000.2 3.13,-3.91 371.56,297.26 153.55,-113.49 c 1.8,-1.33 4.26,-1.31 6.03,0.06 l 323.48,249.35 206.49,-199.84 V 2005.2 H 4475.69 v -5 l 3.13,-3.91 -3.13,3.91 v -5 h 1069.24 c 1.32,0 2.6,0.53 3.54,1.46 0.93,0.93 1.46,2.22 1.46,3.54 v 231.55 c 0,1.36 -0.55,2.65 -1.52,3.59 l -211.13,204.32 c -1.77,1.72 -4.57,1.88 -6.53,0.37 l -323.91,-249.69 -153.61,113.54 c -1.82,1.34 -4.32,1.3 -6.09,-0.12 L 4472.57,2004.1 c -1.66,-1.33 -2.3,-3.55 -1.6,-5.56 0.71,-2 2.59,-3.34 4.72,-3.34 v 5" /><path
         id="path244"
         style="fill:#17282f;fill-opacity:1;fill-rule:nonzero;stroke:none"
         d="m 4734.48,2476.93 c 0,-41.37 -33.53,-74.91 -74.91,-74.91 -41.38,0 -74.91,33.54 -74.91,74.91 0,41.37 33.53,74.91 74.91,74.91 41.38,0 74.91,-33.54 74.91,-74.91" /><path
         id="path246"
         style="fill:#17282f;fill-opacity:1;fill-rule:nonzero;stroke:none"
         d="m 4734.48,2476.93 h -5 c 0,-19.32 -7.82,-36.77 -20.47,-49.44 -12.67,-12.66 -30.12,-20.47 -49.44,-20.47 -19.32,0 -36.77,7.81 -49.44,20.47 -12.66,12.67 -20.47,30.12 -20.47,49.44 0,19.32 7.81,36.77 20.47,49.44 12.67,12.66 30.12,20.47 49.44,20.47 19.32,0 36.77,-7.81 49.44,-20.47 12.65,-12.67 20.47,-30.12 20.47,-49.44 h 5 5 c 0,44.14 -35.77,79.91 -79.91,79.91 -44.14,0 -79.91,-35.77 -79.91,-79.91 0,-44.14 35.77,-79.91 79.91,-79.91 44.14,0 79.91,35.77 79.91,79.91 h -5" /><path
         id="path248"
         style="fill:#ffffff;fill-opacity:1;fill-rule:nonzero;stroke:none"
         d="m 4475.69,1271.48 h 1076.05 v 640.18 H 4475.69 v -640.18" /><path
         id="path250"
         style="fill:#17282f;fill-opacity:1;fill-rule:nonzero;stroke:none"
         d="m 4475.69,1271.48 v -5 h 1076.05 c 1.31,0 2.6,0.53 3.53,1.46 0.93,0.93 1.47,2.22 1.47,3.54 v 640.18 c 0,1.32 -0.54,2.61 -1.47,3.54 -0.93,0.93 -2.22,1.46 -3.53,1.46 H 4475.69 c -1.31,0 -2.6,-0.53 -3.53,-1.46 -0.93,-0.93 -1.47,-2.22 -1.47,-3.54 v -640.18 c 0,-1.32 0.54,-2.61 1.47,-3.54 0.93,-0.93 2.22,-1.46 3.53,-1.46 v 5 h 5 v 635.18 H 5546.74 V 1276.48 H 4475.69 v -5 h 5 -5" /><path
         id="path252"
         style="fill:#17282f;fill-opacity:1;fill-rule:nonzero;stroke:none"
         d="m 4475.69,1271.48 374.57,299.66 156.64,-115.78 326.91,251.99 211.12,-204.32 V 1271.48 H 4475.69" /><path
         id="path254"
         style="fill:#17282f;fill-opacity:1;fill-rule:nonzero;stroke:none"
         d="m 4475.69,1271.48 3.13,-3.91 371.56,297.26 153.55,-113.49 c 1.8,-1.32 4.26,-1.3 6.03,0.06 l 323.48,249.35 206.49,-199.84 V 1276.48 H 4475.69 v -5 l 3.13,-3.91 -3.13,3.91 v -5 h 1069.24 c 1.32,0 2.6,0.53 3.54,1.46 0.93,0.93 1.46,2.22 1.46,3.54 v 231.55 c 0,1.36 -0.55,2.65 -1.52,3.59 l -211.13,204.32 c -1.77,1.72 -4.57,1.88 -6.52,0.37 l -323.92,-249.68 -153.61,113.53 c -1.82,1.34 -4.32,1.3 -6.09,-0.12 l -374.57,-299.66 c -1.66,-1.33 -2.3,-3.55 -1.6,-5.56 0.71,-2.01 2.59,-3.34 4.72,-3.34 v 5" /><path
         id="path256"
         style="fill:#17282f;fill-opacity:1;fill-rule:nonzero;stroke:none"
         d="m 4734.48,1748.21 c 0,-41.37 -33.53,-74.92 -74.91,-74.92 -41.38,0 -74.91,33.55 -74.91,74.92 0,41.37 33.53,74.92 74.91,74.92 41.38,0 74.91,-33.55 74.91,-74.92" /><path
         id="path258"
         style="fill:#17282f;fill-opacity:1;fill-rule:nonzero;stroke:none"
         d="m 4734.48,1748.21 h -5 c 0,-19.32 -7.82,-36.77 -20.47,-49.44 -12.67,-12.66 -30.12,-20.47 -49.44,-20.48 -19.32,0.01 -36.77,7.82 -49.44,20.48 -12.66,12.67 -20.47,30.12 -20.47,49.44 0,19.32 7.81,36.77 20.47,49.44 12.67,12.66 30.12,20.48 49.44,20.48 19.32,0 36.77,-7.82 49.44,-20.48 12.65,-12.67 20.47,-30.12 20.47,-49.44 h 5 5 c 0,44.14 -35.77,79.92 -79.91,79.92 -44.14,0 -79.91,-35.78 -79.91,-79.92 0,-44.13 35.77,-79.91 79.91,-79.92 44.14,0.01 79.91,35.79 79.91,79.92 h -5" /><path
         id="path260"
         style="fill:#17282f;fill-opacity:1;fill-rule:nonzero;stroke:none"
         d="m 3940.33,1601.06 -41.91,257.21 h 29.85 l 27.63,-184.81 34.61,183.86 h 25.41 l 34.92,-184.82 26.99,185.77 h 29.23 l -41.29,-257.21 h -26.04 l -35.88,190.53 -36.2,-190.53 h -27.32" /><path
         id="path262"
         style="fill:#17282f;fill-opacity:1;fill-rule:nonzero;stroke:none"
         d="m 4146.14,1837.66 h 251.59 v 10 h -251.59 z" /><path
         id="path264"
         style="fill:#17282f;fill-opacity:1;fill-rule:nonzero;stroke:none"
         d="m 4146.14,1768.26 h 251.59 v 10 h -251.59 z" /><path
         id="path266"
         style="fill:#17282f;fill-opacity:1;fill-rule:nonzero;stroke:none"
         d="m 4146.14,1698.85 h 251.59 v 10 h -251.59 z" /><path
         id="path268"
         style="fill:#17282f;fill-opacity:1;fill-rule:nonzero;stroke:none"
         d="m 4146.14,1629.46 h 251.59 v 10 h -251.59 z" /><path
         id="path270"
         style="fill:#17282f;fill-opacity:1;fill-rule:nonzero;stroke:none"
         d="m 4146.14,1560.05 h 251.59 v 10 h -251.59 z" /><path
         id="path272"
         style="fill:#17282f;fill-opacity:1;fill-rule:nonzero;stroke:none"
         d="m 4146.14,1490.65 h 251.59 v 10 h -251.59 z" /><path
         id="path274"
         style="fill:#17282f;fill-opacity:1;fill-rule:nonzero;stroke:none"
         d="m 4146.14,1421.24 h 251.59 v 10 h -251.59 z" /><path
         id="path276"
         style="fill:#17282f;fill-opacity:1;fill-rule:nonzero;stroke:none"
         d="m 4146.14,1351.84 h 251.59 v 10 h -251.59 z" /><path
         id="path278"
         style="fill:#17282f;fill-opacity:1;fill-rule:nonzero;stroke:none"
         d="m 4146.14,1282.44 h 251.59 v 10 h -251.59 z" /><path
         id="path280"
         style="fill:#17282f;fill-opacity:1;fill-rule:nonzero;stroke:none"
         d="m 3995.93,2630.16 c -71.43,0 -137.8,-21.58 -193,-58.54 v 784.61 H 2093.03 V 1209.44 h 1709.9 v 784.62 c 55.2,-36.97 121.57,-58.55 193,-58.55 191.81,0 347.32,155.5 347.32,347.33 0,191.82 -155.51,347.32 -347.32,347.32" /><path
         id="path282"
         style="fill:#17282f;fill-opacity:1;fill-rule:nonzero;stroke:none"
         d="m 3995.93,2630.16 v 5 c -72.44,0 -139.79,-21.9 -195.78,-59.39 l 2.78,-4.15 h 5 v 784.61 c 0,1.32 -0.53,2.61 -1.47,3.54 -0.93,0.93 -2.22,1.46 -3.53,1.46 h -1709.9 c -1.32,0 -2.6,-0.53 -3.53,-1.46 -0.94,-0.93 -1.47,-2.22 -1.47,-3.54 V 1209.44 c 0,-1.32 0.53,-2.61 1.47,-3.54 0.93,-0.93 2.21,-1.46 3.53,-1.46 h 1709.9 c 1.31,0 2.6,0.53 3.53,1.46 0.94,0.93 1.47,2.22 1.47,3.54 v 784.62 h -5 l -2.78,-4.16 c 55.99,-37.49 123.34,-59.39 195.78,-59.39 194.58,0 352.32,157.74 352.32,352.33 0,194.58 -157.74,352.32 -352.32,352.32 v -5 -5 c 94.54,0 180.09,-38.31 242.05,-100.26 61.96,-61.97 100.27,-147.52 100.27,-242.06 0,-94.55 -38.31,-180.1 -100.27,-242.07 -61.96,-61.95 -147.51,-100.26 -242.05,-100.26 -70.42,0 -135.8,21.27 -190.22,57.7 -1.54,1.03 -3.5,1.13 -5.14,0.26 -1.63,-0.87 -2.64,-2.56 -2.64,-4.41 v -779.62 h -1699.9 v 2136.79 h 1699.9 v -779.61 c 0,-1.86 1.01,-3.54 2.64,-4.42 1.64,-0.87 3.6,-0.77 5.14,0.26 54.42,36.43 119.8,57.7 190.22,57.7 v 5" /><path
         id="path284"
         style="fill:#ffffff;fill-opacity:1;fill-rule:nonzero;stroke:none"
         d="m 2270.88,3018.57 h 769.58 c 5.52,0 10,4.48 10,10 0,5.53 -4.48,10 -10,10 h -769.58 c -5.53,0 -10,-4.47 -10,-10 0,-5.52 4.47,-10 10,-10" /><path
         id="path286"
         style="fill:#ffffff;fill-opacity:1;fill-rule:nonzero;stroke:none"
         d="m 2270.88,2788.29 h 401.81 c 5.53,0 10,4.47 10,10 0,5.52 -4.47,10 -10,10 h -401.81 c -5.53,0 -10,-4.48 -10,-10 0,-5.53 4.47,-10 10,-10" /><path
         id="path288"
         style="fill:#6ccb94;fill-opacity:1;fill-rule:nonzero;stroke:none"
         d="m 2270.88,2914.95 h 374.57 c 5.53,0 10,4.47 10,10 0,5.52 -4.47,10 -10,10 h -374.57 c -5.53,0 -10,-4.48 -10,-10 0,-5.53 4.47,-10 10,-10" /><path
         id="path290"
         style="fill:#6ccb94;fill-opacity:1;fill-rule:nonzero;stroke:none"
         d="m 2727.18,2914.95 h 197.5 c 5.52,0 10,4.47 10,10 0,5.52 -4.48,10 -10,10 h -197.5 c -5.53,0 -10,-4.48 -10,-10 0,-5.53 4.47,-10 10,-10" /><path
         id="path292"
         style="fill:#6ccb94;fill-opacity:1;fill-rule:nonzero;stroke:none"
         d="m 3040.46,2914.95 h 197.5 c 5.53,0 10,4.47 10,10 0,5.52 -4.47,10 -10,10 h -197.5 c -5.53,0 -10,-4.48 -10,-10 0,-5.53 4.47,-10 10,-10" /><path
         id="path294"
         style="fill:#ffffff;fill-opacity:1;fill-rule:nonzero;stroke:none"
         d="m 2270.88,2690.41 h 374.57 c 5.53,0 10,4.48 10,10 0,5.52 -4.47,10 -10,10 h -374.57 c -5.53,0 -10,-4.48 -10,-10 0,-5.52 4.47,-10 10,-10" /><path
         id="path296"
         style="fill:#ffffff;fill-opacity:1;fill-rule:nonzero;stroke:none"
         d="m 2727.18,2690.41 h 197.5 c 5.52,0 10,4.48 10,10 0,5.52 -4.48,10 -10,10 h -197.5 c -5.53,0 -10,-4.48 -10,-10 0,-5.52 4.47,-10 10,-10" /><path
         id="path298"
         style="fill:#6ccb94;fill-opacity:1;fill-rule:nonzero;stroke:none"
         d="m 3040.46,2690.41 h 197.5 c 5.53,0 10,4.48 10,10 0,5.52 -4.47,10 -10,10 h -197.5 c -5.53,0 -10,-4.48 -10,-10 0,-5.52 4.47,-10 10,-10" /><path
         id="path300"
         style="fill:#ffffff;fill-opacity:1;fill-rule:nonzero;stroke:none"
         d="m 2270.88,2465.88 h 374.57 c 5.53,0 10,4.48 10,10 0,5.52 -4.47,10 -10,10 h -374.57 c -5.53,0 -10,-4.48 -10,-10 0,-5.52 4.47,-10 10,-10" /><path
         id="path302"
         style="fill:#6ccb94;fill-opacity:1;fill-rule:nonzero;stroke:none"
         d="m 2727.18,2465.88 h 197.5 c 5.52,0 10,4.48 10,10 0,5.52 -4.48,10 -10,10 h -197.5 c -5.53,0 -10,-4.48 -10,-10 0,-5.52 4.47,-10 10,-10" /><path
         id="path304"
         style="fill:#ffffff;fill-opacity:1;fill-rule:nonzero;stroke:none"
         d="m 3040.46,2465.88 h 197.5 c 5.53,0 10,4.48 10,10 0,5.52 -4.47,10 -10,10 h -197.5 c -5.53,0 -10,-4.48 -10,-10 0,-5.52 4.47,-10 10,-10" /><path
         id="path306"
         style="fill:#ffffff;fill-opacity:1;fill-rule:nonzero;stroke:none"
         d="m 2502.43,2368 h 284.89 c 5.52,0 10,4.48 10,10 0,5.52 -4.48,10 -10,10 h -284.89 c -5.52,0 -10,-4.48 -10,-10 0,-5.52 4.48,-10 10,-10" /><path
         id="path308"
         style="fill:#ffffff;fill-opacity:1;fill-rule:nonzero;stroke:none"
         d="m 2849.48,2368 h 150.21 c 5.52,0 10,4.48 10,10 0,5.52 -4.48,10 -10,10 h -150.21 c -5.53,0 -10,-4.48 -10,-10 0,-5.52 4.47,-10 10,-10" /><path
         id="path310"
         style="fill:#ffffff;fill-opacity:1;fill-rule:nonzero;stroke:none"
         d="m 3087.75,2368 h 150.21 c 5.53,0 10,4.48 10,10 0,5.52 -4.47,10 -10,10 h -150.21 c -5.53,0 -10,-4.48 -10,-10 0,-5.52 4.47,-10 10,-10" /><path
         id="path312"
         style="fill:#ffffff;fill-opacity:1;fill-rule:nonzero;stroke:none"
         d="m 2502.43,2247.1 h 284.89 c 5.52,0 10,4.48 10,10 0,5.53 -4.48,10 -10,10 h -284.89 c -5.52,0 -10,-4.47 -10,-10 0,-5.52 4.48,-10 10,-10" /><path
         id="path314"
         style="fill:#ffffff;fill-opacity:1;fill-rule:nonzero;stroke:none"
         d="m 2849.48,2247.1 h 150.21 c 5.52,0 10,4.48 10,10 0,5.53 -4.48,10 -10,10 h -150.21 c -5.53,0 -10,-4.47 -10,-10 0,-5.52 4.47,-10 10,-10" /><path
         id="path316"
         style="fill:#ffffff;fill-opacity:1;fill-rule:nonzero;stroke:none"
         d="m 3087.75,2247.1 h 150.21 c 5.53,0 10,4.48 10,10 0,5.53 -4.47,10 -10,10 h -150.21 c -5.53,0 -10,-4.47 -10,-10 0,-5.52 4.47,-10 10,-10" /><path
         id="path318"
         style="fill:#6ccb94;fill-opacity:1;fill-rule:nonzero;stroke:none"
         d="m 2270.88,2114.68 h 769.58 c 5.52,0 10,4.48 10,10 0,5.52 -4.48,10 -10,10 h -769.58 c -5.53,0 -10,-4.48 -10,-10 0,-5.52 4.47,-10 10,-10" /><path
         id="path320"
         style="fill:#ffffff;fill-opacity:1;fill-rule:nonzero;stroke:none"
         d="m 2270.88,1884.39 h 401.81 c 5.53,0 10,4.48 10,10 0,5.52 -4.47,10 -10,10 h -401.81 c -5.53,0 -10,-4.48 -10,-10 0,-5.52 4.47,-10 10,-10" /><path
         id="path322"
         style="fill:#6ccb94;fill-opacity:1;fill-rule:nonzero;stroke:none"
         d="m 2270.88,2011.05 h 374.57 c 5.53,0 10,4.48 10,10 0,5.52 -4.47,10 -10,10 h -374.57 c -5.53,0 -10,-4.48 -10,-10 0,-5.52 4.47,-10 10,-10" /><path
         id="path324"
         style="fill:#ffffff;fill-opacity:1;fill-rule:nonzero;stroke:none"
         d="m 2727.18,2011.05 h 197.5 c 5.52,0 10,4.48 10,10 0,5.52 -4.48,10 -10,10 h -197.5 c -5.53,0 -10,-4.48 -10,-10 0,-5.52 4.47,-10 10,-10" /><path
         id="path326"
         style="fill:#6ccb94;fill-opacity:1;fill-rule:nonzero;stroke:none"
         d="m 3040.46,2011.05 h 197.5 c 5.53,0 10,4.48 10,10 0,5.52 -4.47,10 -10,10 h -197.5 c -5.53,0 -10,-4.48 -10,-10 0,-5.52 4.47,-10 10,-10" /><path
         id="path328"
         style="fill:#6ccb94;fill-opacity:1;fill-rule:nonzero;stroke:none"
         d="m 2270.88,1786.52 h 374.57 c 5.53,0 10,4.47 10,10 0,5.52 -4.47,10 -10,10 h -374.57 c -5.53,0 -10,-4.48 -10,-10 0,-5.53 4.47,-10 10,-10" /><path
         id="path330"
         style="fill:#6ccb94;fill-opacity:1;fill-rule:nonzero;stroke:none"
         d="m 2727.18,1786.52 h 197.5 c 5.52,0 10,4.47 10,10 0,5.52 -4.48,10 -10,10 h -197.5 c -5.53,0 -10,-4.48 -10,-10 0,-5.53 4.47,-10 10,-10" /><path
         id="path332"
         style="fill:#ffffff;fill-opacity:1;fill-rule:nonzero;stroke:none"
         d="m 3040.46,1786.52 h 197.5 c 5.53,0 10,4.47 10,10 0,5.52 -4.47,10 -10,10 h -197.5 c -5.53,0 -10,-4.48 -10,-10 0,-5.53 4.47,-10 10,-10" /><path
         id="path334"
         style="fill:#ffffff;fill-opacity:1;fill-rule:nonzero;stroke:none"
         d="m 2270.88,1561.99 h 374.57 c 5.53,0 10,4.47 10,10 0,5.52 -4.47,10 -10,10 h -374.57 c -5.53,0 -10,-4.48 -10,-10 0,-5.53 4.47,-10 10,-10" /><path
         id="path336"
         style="fill:#6ccb94;fill-opacity:1;fill-rule:nonzero;stroke:none"
         d="m 2727.18,1561.99 h 197.5 c 5.52,0 10,4.47 10,10 0,5.52 -4.48,10 -10,10 h -197.5 c -5.53,0 -10,-4.48 -10,-10 0,-5.53 4.47,-10 10,-10" /><path
         id="path338"
         style="fill:#6ccb94;fill-opacity:1;fill-rule:nonzero;stroke:none"
         d="m 3040.46,1561.99 h 197.5 c 5.53,0 10,4.47 10,10 0,5.52 -4.47,10 -10,10 h -197.5 c -5.53,0 -10,-4.48 -10,-10 0,-5.53 4.47,-10 10,-10" /><path
         id="path340"
         style="fill:#ffffff;fill-opacity:1;fill-rule:nonzero;stroke:none"
         d="m 2502.43,1464.11 h 284.89 c 5.52,0 10,4.47 10,10 0,5.52 -4.48,10 -10,10 h -284.89 c -5.52,0 -10,-4.48 -10,-10 0,-5.53 4.48,-10 10,-10" /><path
         id="path342"
         style="fill:#ffffff;fill-opacity:1;fill-rule:nonzero;stroke:none"
         d="m 2849.48,1464.11 h 150.21 c 5.52,0 10,4.47 10,10 0,5.52 -4.48,10 -10,10 h -150.21 c -5.53,0 -10,-4.48 -10,-10 0,-5.53 4.47,-10 10,-10" /><path
         id="path344"
         style="fill:#ffffff;fill-opacity:1;fill-rule:nonzero;stroke:none"
         d="m 3087.75,1464.11 h 150.21 c 5.53,0 10,4.47 10,10 0,5.52 -4.47,10 -10,10 h -150.21 c -5.53,0 -10,-4.48 -10,-10 0,-5.53 4.47,-10 10,-10" /><path
         id="path346"
         style="fill:#ffffff;fill-opacity:1;fill-rule:nonzero;stroke:none"
         d="m 2502.43,1343.21 h 284.89 c 5.52,0 10,4.47 10,10 0,5.52 -4.48,10 -10,10 h -284.89 c -5.52,0 -10,-4.48 -10,-10 0,-5.53 4.48,-10 10,-10" /><path
         id="path348"
         style="fill:#ffffff;fill-opacity:1;fill-rule:nonzero;stroke:none"
         d="m 2849.48,1343.21 h 150.21 c 5.52,0 10,4.47 10,10 0,5.52 -4.48,10 -10,10 h -150.21 c -5.53,0 -10,-4.48 -10,-10 0,-5.53 4.47,-10 10,-10" /><path
         id="path350"
         style="fill:#ffffff;fill-opacity:1;fill-rule:nonzero;stroke:none"
         d="m 3087.75,1343.21 h 150.21 c 5.53,0 10,4.47 10,10 0,5.52 -4.47,10 -10,10 h -150.21 c -5.53,0 -10,-4.48 -10,-10 0,-5.53 4.47,-10 10,-10" /><path
         id="path352"
         style="fill:#ffffff;fill-opacity:1;fill-rule:nonzero;stroke:none"
         d="m 2291.88,3166.68 72.36,37.27 v -10.76 l -60.97,-30.56 v -0.31 l 60.97,-30.57 v -10.76 l -72.36,37.27 v 8.42" /><path
         id="path354"
         style="fill:#ffffff;fill-opacity:1;fill-rule:nonzero;stroke:none"
         d="m 2291.88,3166.68 2.29,-4.44 65.07,33.51 v -2.56 h 5 l -2.24,4.47 -63.73,-31.95 v -3.39 -3.09 l 60.97,-30.56 v -7.68 h 5 l 2.29,4.45 -69.65,35.87 v 5.37 h -5 l 2.29,-4.44 -2.29,4.44 h -5 v -8.42 -3.05 l 82.36,-42.42 v 22.05 l -63.73,31.95 -2.24,-4.47 h 5 v 0.31 h -5 l 2.24,-4.47 63.73,31.95 v 22.04 l -82.36,-42.42 v -3.05 h 5" /><path
         id="path356"
         style="fill:#ffffff;fill-opacity:1;fill-rule:nonzero;stroke:none"
         d="m 2407.5,3114.75 43.51,113.06 h 10.61 l -43.67,-113.06 h -10.45" /><path
         id="path358"
         style="fill:#ffffff;fill-opacity:1;fill-rule:nonzero;stroke:none"
         d="m 2407.5,3114.75 4.67,-1.8 42.28,109.86 h 7.17 v 5 l -4.66,1.8 -42.44,-109.86 h -7.02 v -5 l 4.67,-1.8 -4.67,1.8 v -5 h 10.45 3.43 l 47.54,123.06 h -21.34 l -47.36,-123.06 h 7.28 v 5" /><path
         id="path360"
         style="fill:#ffffff;fill-opacity:1;fill-rule:nonzero;stroke:none"
         d="m 2576.91,3158.11 -72.36,-37.12 v 10.76 l 61.44,30.57 v 0.31 l -61.44,30.56 v 10.76 l 72.36,-37.12 v -8.72" /><path
         id="path362"
         style="fill:#ffffff;fill-opacity:1;fill-rule:nonzero;stroke:none"
         d="m 2576.91,3158.11 -2.28,4.45 -65.08,-33.39 v 2.58 h -5 l 2.23,-4.47 64.21,31.94 v 3.41 3.09 l -61.44,30.57 v 7.66 h -5 l -2.28,-4.44 69.64,-35.73 v -5.67 h 5 l -2.28,4.45 2.28,-4.45 h 5 v 8.72 3.06 l -82.36,42.25 v -22.04 l 64.22,-31.95 2.22,4.48 h -5 v -0.31 h 5 l -2.22,4.47 -64.22,-31.94 v -22.04 l 82.36,42.24 v 3.06 h -5" /><path
         id="path364"
         style="fill:#17282f;fill-opacity:1;fill-rule:nonzero;stroke:none"
         d="m 660.781,195.398 h 6350.27 v 10 H 660.781 Z" /><path
         id="path366"
         style="fill:#17282f;fill-opacity:1;fill-rule:nonzero;stroke:none"
         d="m 331.055,195.398 h 170.969 v 10 H 331.055 Z" /></g></g></svg>